<svg width="41" height="33" viewBox="0 0 41 33" fill="none" xmlns="http://www.w3.org/2000/svg">
<path d="M18.4746 32.0736C18.0388 31.6428 16.9748 30.8672 16.1102 30.35C15.2457 29.8328 14.6434 29.4097 14.7719 29.4097C15.026 29.4097 18.1718 31.2787 18.9666 31.9018C19.2364 32.1134 19.4145 32.4149 19.3622 32.5717C19.3099 32.7286 18.9105 32.5044 18.4746 32.0736V32.0736ZM22.3124 32.7273C22.3124 32.2896 26.5613 29.4097 27.207 29.4097C27.3355 29.4097 26.7333 29.8341 25.8687 30.3528C25.0041 30.8715 23.9339 31.6455 23.4904 32.0726C22.7475 32.7882 22.3124 33.03 22.3124 32.7273V32.7273ZM10.6687 31.4836L8.99464 30.647L10.7147 30.1344L12.4347 29.6217L13.8381 30.2254L15.2415 30.8291L14.4071 31.5746C13.3409 32.5273 12.7274 32.5123 10.6687 31.4836V31.4836ZM27.6039 31.6033L26.7374 30.8291L28.1323 30.229C29.521 29.6317 29.5346 29.6311 31.1889 30.1049L32.8507 30.5808L31.5227 31.3393C29.5221 32.4818 28.6527 32.5404 27.6039 31.6033V31.6033ZM7.19002 28.1944C6.55778 27.6715 5.92739 27.1357 5.78915 27.0038C5.6375 26.859 6.18688 26.7638 7.17403 26.7638C8.62473 26.7638 8.90826 26.854 9.67435 27.5591C10.5133 28.3312 10.5235 28.3659 10.0248 28.7497C9.21471 29.3734 8.42955 29.2195 7.19002 28.1944V28.1944ZM11.6968 27.8698C9.60071 26.5005 7.73631 24.6026 6.75117 22.8352C5.89981 21.3077 6.16182 21.4644 7.35419 23.1956C8.54767 24.9285 11.0152 27.272 12.6634 28.2379C13.7085 28.8504 14.0606 29.1451 13.7474 29.1451C13.6933 29.1451 12.7705 28.5712 11.6968 27.8698V27.8698ZM14.9402 28.2198C14.4838 27.6999 14.1018 27.1895 14.0915 27.0854C14.0811 26.9813 13.9889 25.976 13.8865 24.8514L13.7003 22.8067L14.5899 23.6608C15.9099 24.928 16.5339 26.3084 16.4392 27.7519C16.3952 28.4227 16.2267 29.015 16.0647 29.0683C15.9027 29.1215 15.3967 28.7397 14.9402 28.2198V28.2198ZM25.6638 28.9687C25.353 28.658 25.4751 26.5109 25.8535 25.6309C26.0548 25.1626 26.6845 24.3334 27.2527 23.7883L28.2858 22.7971L28.0936 24.7143C27.9878 25.7688 27.894 26.7762 27.885 26.9531C27.8663 27.3208 26.3252 29.1451 26.0332 29.1451C25.927 29.1451 25.7608 29.0657 25.6638 28.9687ZM28.1332 29.0314C28.1332 28.9586 28.3713 28.7717 28.6624 28.6159C28.9534 28.4602 29.1915 28.3923 29.1915 28.465C29.1915 28.5378 28.9534 28.7247 28.6624 28.8805C28.3713 29.0363 28.1332 29.1042 28.1332 29.0314ZM31.7903 28.7907C31.2848 28.4064 31.3933 28.1756 32.4684 27.35C33.0578 26.8974 33.5871 26.7638 34.7923 26.7638H36.353L35.0124 27.9545C33.6119 29.1983 32.6535 29.447 31.7903 28.7907V28.7907ZM30.1176 27.7774C31.7054 26.5541 33.1417 25.1162 34.2494 23.641C35.8087 21.5644 35.9822 21.4166 35.2487 22.7899C34.4969 24.1973 31.5314 27.2262 30.2386 27.9071L29.3238 28.3889L30.1176 27.7774ZM11.2185 26.2039C10.6566 25.2822 10.5774 24.3332 10.8899 22.2659L11.0699 21.0753L11.7302 22.1336C12.2494 22.9658 12.3905 23.5425 12.3905 24.8324C12.3905 26.9415 11.9689 27.4348 11.2185 26.2039V26.2039ZM29.734 26.5241C29.0925 25.3254 29.7478 21.9772 30.7445 21.3612C30.8752 21.2804 31.0645 22.0942 31.1653 23.1695C31.3088 24.7009 31.2585 25.2987 30.9334 25.9275C30.3814 26.9949 30.0691 27.1502 29.734 26.5241ZM4.80965 24.7133C4.44204 24.3131 3.88345 23.6094 3.56834 23.1494L2.99542 22.3132L4.38567 22.6768C5.80975 23.0492 7.69523 24.6395 7.35857 25.1842C7.01726 25.7364 5.4904 25.4544 4.80965 24.7133V24.7133ZM34.619 25.182C34.382 24.7986 35.512 23.3979 36.3067 23.09C36.6862 22.9429 37.4448 22.7065 37.9925 22.5646L38.9882 22.3066L38.4129 23.1462C37.2402 24.8576 36.5354 25.4409 35.64 25.4409C35.1664 25.4409 34.707 25.3244 34.619 25.182ZM8.28896 23.4552C7.86245 22.3334 7.98388 21.4398 8.79185 19.7542L9.55196 18.1684L9.84527 19.225C10.253 20.6935 10.208 21.4325 9.63412 22.6963C8.99033 24.114 8.61907 24.3235 8.28896 23.4552V23.4552ZM32.6474 23.3472C31.8705 22.256 31.7057 21.0054 32.1153 19.3098C32.4103 18.0889 32.48 17.9888 32.6359 18.5618C32.7349 18.9256 33.0849 19.7498 33.4137 20.3934C33.8533 21.254 33.9744 21.84 33.8713 22.6083C33.6708 24.1036 33.3318 24.3082 32.6474 23.3472V23.3472ZM3.45773 21.4492C3.0244 21.1969 1.53641 18.6065 1.72324 18.4297C1.7694 18.386 2.31887 18.5923 2.94429 18.8882C3.71605 19.2533 4.24372 19.7443 4.58659 20.4164C4.86445 20.961 5.01751 21.4809 4.92673 21.5717C4.68256 21.8159 3.9879 21.758 3.45773 21.4492V21.4492ZM37.0229 21.5146C36.7152 21.0166 37.8879 19.4807 39.0053 18.9181C39.643 18.597 40.2041 18.3737 40.2522 18.4218C40.455 18.6246 38.9386 21.2118 38.4697 21.4627C37.8506 21.794 37.2098 21.817 37.0229 21.5145V21.5146ZM6.27248 20.292C5.98226 19.5357 6.37199 18.1183 7.17496 17.0098C7.60369 16.4179 8.02985 16.0091 8.12197 16.1012C8.50476 16.484 8.24748 18.4879 7.6898 19.4672C7.02481 20.635 6.51741 20.9303 6.27248 20.292ZM34.4577 19.8488C34.0236 19.2392 33.8218 18.5319 33.7558 17.3884L33.6632 15.7836L34.3517 16.5774C35.398 17.7836 35.8457 18.774 35.7555 19.6827C35.6437 20.8092 35.1835 20.8681 34.4577 19.8488H34.4577ZM2.09764 17.3592C1.87281 17.1344 1.56077 16.4498 1.40422 15.8379C1.24767 15.226 1.06579 14.5664 1.00003 14.3721C0.93428 14.1778 1.35039 14.3911 1.92474 14.8459C2.49909 15.3008 3.03502 15.9063 3.11569 16.1913C3.19636 16.4764 3.32993 16.9478 3.4125 17.2388C3.5267 17.6414 3.43627 17.768 3.03452 17.768C2.74407 17.768 2.32247 17.5841 2.09764 17.3592V17.3592ZM38.452 17.5133C38.452 16.7677 39.2675 15.4073 40.0474 14.8519L40.909 14.2384L40.7251 15.2756C40.6239 15.8461 40.327 16.6105 40.0653 16.9743C39.5751 17.6557 38.452 18.031 38.452 17.5133V17.5133ZM4.07702 17.0845C4.08971 16.7763 4.15241 16.7136 4.23687 16.9247C4.3133 17.1157 4.3039 17.3438 4.21598 17.4318C4.12806 17.5197 4.06552 17.3634 4.07701 17.0845H4.07702ZM4.84988 16.8544C4.84988 15.914 5.31513 15.0938 6.33489 14.2362C7.177 13.5281 7.23112 13.5158 7.23112 14.0324C7.23112 14.9736 6.422 16.6589 5.76279 17.0908C4.92859 17.6374 4.84988 17.617 4.84988 16.8544V16.8544ZM36.1641 17.1157C35.457 16.6204 34.746 15.1283 34.7539 14.1561L34.7599 13.4024L35.9444 14.6438C36.8185 15.5598 37.1289 16.0971 37.1289 16.6943C37.1289 17.6028 36.9629 17.6753 36.1639 17.1157H36.1641ZM3.81243 16.0262C3.82512 15.7179 3.88782 15.6552 3.97228 15.8663C4.04871 16.0573 4.03931 16.2855 3.95139 16.3734C3.86347 16.4613 3.80094 16.3051 3.81243 16.0262V16.0262ZM38.1194 13.9315C38.1796 12.4763 38.2697 11.1667 38.3195 11.0211C38.5046 10.481 38.3919 15.2795 38.2045 15.9159C38.0975 16.2797 38.0592 15.3868 38.1194 13.9315H38.1194ZM3.62234 13.0055C3.62234 11.6231 3.66693 11.0575 3.72144 11.7487C3.77594 12.44 3.77594 13.5711 3.72144 14.2623C3.66694 14.9535 3.62234 14.388 3.62234 13.0055V13.0055ZM4.32071 13.5173C4.32071 12.648 4.77234 12.0259 6.03333 11.1584L7.20885 10.3496L6.83168 11.6114C6.29538 13.4056 4.32071 14.9044 4.32071 13.5173V13.5173ZM36.3962 13.6534C35.7067 13.1705 35.2663 12.4116 35.0062 11.2585L34.8183 10.4252L35.9921 11.2173C37.0916 11.9594 37.6582 12.7983 37.6582 13.6842C37.6582 14.1798 37.1293 14.1669 36.3962 13.6534V13.6534ZM1.84817 13.0508C1.39111 12.5458 1.27579 10.6649 1.64431 9.72581C1.95484 8.93449 3.0831 11.7502 2.86088 12.762C2.66376 13.6595 2.45332 13.7195 1.84817 13.0508ZM39.1417 13.1161C38.8533 12.3645 38.9712 11.6282 39.5728 10.4236C40.1226 9.32256 40.1768 9.28316 40.3401 9.86543C40.6568 10.9944 40.5763 12.3476 40.1567 12.9466C39.6708 13.6404 39.3627 13.6919 39.1417 13.1161ZM4.7591 9.89662C4.98561 9.05266 5.54216 8.53224 6.7904 7.99718C8.17338 7.40437 8.34619 7.61798 7.50991 8.8866C6.92637 9.77182 6.03712 10.3366 5.20537 10.3503C4.789 10.3573 4.66841 10.2345 4.7591 9.89662ZM35.5918 10.0017C34.938 9.63891 33.9587 8.31701 33.9558 7.79346C33.9528 7.31178 35.8135 8.13534 36.5337 8.93469C37.6215 10.142 37.0372 10.8038 35.5918 10.0017V10.0017ZM2.79685 9.04031C2.33973 8.30834 2.40523 7.21297 2.96946 6.15392C3.49422 5.16895 3.65421 5.25753 3.92123 6.68086C4.0373 7.29953 3.95851 7.96444 3.69418 8.59708C3.47154 9.12993 3.25241 9.56589 3.20723 9.56589C3.16205 9.56589 2.97738 9.32938 2.79685 9.04031ZM38.3015 8.63712C37.8715 7.60792 37.9665 5.33255 38.4394 5.33255C38.7368 5.33255 39.5123 7.31604 39.5019 8.0499C39.4969 8.37437 39.3208 8.86797 39.1099 9.1468C38.7457 9.62802 38.7047 9.60216 38.3015 8.63712V8.63712ZM6.43738 6.37891C6.43738 5.96431 7.67979 4.80344 8.1235 4.80344C8.3365 4.80344 8.69909 4.73114 8.92927 4.64284C9.60289 4.38435 9.41459 5.04192 8.57439 5.88211C7.81957 6.63693 6.43738 6.95826 6.43738 6.37891V6.37891ZM33.3161 5.84146C32.5422 4.92178 32.4271 4.40396 33.0496 4.64284C33.2798 4.73114 33.6424 4.80344 33.8554 4.80344C34.2991 4.80344 35.5415 5.96431 35.5415 6.37891C35.5415 6.53105 35.1949 6.65552 34.7713 6.65552C34.236 6.65552 33.7921 6.40718 33.3161 5.84146V5.84146ZM4.9062 5.11584C4.66545 4.42523 4.72406 4.16551 5.33385 3.22096L6.0405 2.1264L6.12263 3.21613C6.17801 3.95097 6.03874 4.56804 5.69498 5.11099L5.18519 5.91615L4.9062 5.11584ZM36.2297 5.11984C35.9967 4.66931 35.8099 3.84829 35.8145 3.29536L35.8225 2.29005L36.4756 3.03239C37.1358 3.78285 37.3156 4.89244 36.8868 5.56972C36.7063 5.85479 36.5564 5.75221 36.2294 5.11984H36.2297ZM7.86269 2.83672C7.64348 2.26546 8.38949 1.1981 9.35804 0.69725L10.1571 0.284058L9.99101 1.02248C9.63816 2.59171 8.22947 3.79252 7.86269 2.83672ZM32.9721 3.00433C32.6421 2.7946 31.8374 1.06964 31.8374 0.57196C31.8374 0.13657 33.3641 1.02527 33.8253 1.7291C34.4699 2.713 33.8864 3.58532 32.9721 3.00433Z" fill="#FEC146"/>
</svg>
