<svg height="597.33331pt" viewBox="-18 -18 597.33331 597.33331" width="597.33331pt" xmlns="http://www.w3.org/2000/svg">
    <path d="m347.789062 236.671875c-18.414062 7.460937-37.945312 11.808594-57.789062 12.859375v60.46875h69.742188c-.683594-24.867188-4.703126-49.53125-11.953126-73.328125zm0 0" fill="#7b7283"/>
    <path d="m200.257812 310h69.742188v-60.46875c-19.84375-1.050781-39.375-5.398438-57.789062-12.859375-7.25 23.796875-11.269532 48.460937-11.953126 73.328125zm0 0" fill="#7b7283"/>
    <path d="m212.210938 403.328125c18.414062-7.460937 37.945312-11.808594 57.789062-12.859375v-60.46875h-69.742188c.683594 24.867188 4.703126 49.53125 11.953126 73.328125zm0 0" fill="#7b7283"/>
    <path d="m290 161.460938v68.117187c17.535156-1.082031 34.765625-5.054687 51-11.769531-12.757812-30.15625-30.839844-51.050782-51-56.347656zm0 0" fill="#7b7283"/>
    <path d="m379.679688 195.078125c-.519532-.410156-1-.867187-1.519532-1.269531-1.519531-1.1875-3.089844-2.289063-4.648437-3.417969-2.308594-1.671875-4.628907-3.320313-7.003907-4.859375-1.660156-1.074219-3.347656-2.070312-5-3.078125-2.375-1.421875-4.789062-2.796875-7.242187-4.085937-1.769531-.929688-3.554687-1.824219-5.34375-2.679688-2.480469-1.175781-5-2.289062-7.519531-3.347656-1.691406-.699219-3.394532-1.386719-5.105469-1.996094 9.40625 11.734375 17.09375 24.753906 22.835937 38.65625 7.199219-4.09375 14.070313-8.75 20.546876-13.921875zm0 0" fill="#7b7283"/>
    <path d="m219 217.808594c16.234375 6.714844 33.464844 10.6875 51 11.769531v-68.117187c-20.160156 5.296874-38.242188 26.191406-51 56.347656zm0 0" fill="#7b7283"/>
    <path d="m270 478.539062v-68.117187c-17.535156 1.082031-34.765625 5.054687-51 11.769531 12.757812 30.15625 30.839844 51.050782 51 56.347656zm0 0" fill="#7b7283"/>
    <path d="m193.808594 227.820312c-10.011719-5.496093-19.472656-11.929687-28.257813-19.222656-26.640625 27.339844-42.613281 63.3125-45.035156 101.402344h59.753906c.605469-27.894531 5.160157-55.566406 13.539063-82.179688zm0 0" fill="#7b7283"/>
    <path d="m180.269531 330h-59.753906c2.410156 38.089844 18.371094 74.0625 45 101.402344 8.789063-7.296875 18.253906-13.730469 28.265625-19.222656-8.371094-26.617188-12.917969-54.285157-13.511719-82.179688zm0 0" fill="#7b7283"/>
    <path d="m180.320312 444.921875c.519532.410156 1 .867187 1.519532 1.269531 1.519531 1.1875 3.089844 2.289063 4.648437 3.417969 2.308594 1.671875 4.628907 3.320313 7.003907 4.859375 1.660156 1.074219 3.347656 2.070312 5 3.078125 2.375 1.421875 4.789062 2.796875 7.242187 4.085937 1.761719.929688 3.546875 1.824219 5.34375 2.679688 2.480469 1.175781 5 2.289062 7.519531 3.347656 1.691406.699219 3.394532 1.386719 5.105469 1.996094-9.40625-11.734375-17.09375-24.753906-22.835937-38.65625-7.199219 4.09375-14.070313 8.75-20.546876 13.921875zm0 0" fill="#7b7283"/>
    <path d="m223.75 170.308594c-1.71875.644531-3.429688 1.339844-5.132812 2-2.507813 1.050781-5 2.148437-7.445313 3.332031-1.820313.867187-3.632813 1.773437-5.410156 2.710937-2.433594 1.265626-4.808594 2.628907-7.171875 3.996094-1.710938 1.003906-3.429688 2.003906-5.109375 3.128906-2.363281 1.523438-4.652344 3.140626-6.933594 4.792969-1.578125 1.152344-3.167969 2.261719-4.707031 3.472657-.519532.398437-1 .859374-1.519532 1.265624 6.472657 5.195313 13.34375 9.875 20.546876 13.992188 5.753906-13.917969 13.460937-26.945312 22.882812-38.691406zm0 0" fill="#7b7283"/>
    <path d="m560 30c0-16.566406-13.433594-30-30-30h-500c-16.566406 0-30 13.433594-30 30v30h560zm-510 10h-20v-20h20zm40 0h-20v-20h20zm40 0h-20v-20h20zm0 0" fill="#7b7283"/>
    <path d="m366.191406 227.820312c8.378906 26.613282 12.933594 54.285157 13.539063 82.179688h59.753906c-2.410156-38.089844-18.371094-74.0625-45-101.402344-8.800781 7.296875-18.273437 13.730469-28.292969 19.222656zm0 0" fill="#7b7283"/>
    <path d="m560 80h-560v450c0 16.566406 13.433594 30 30 30h500c16.566406 0 30-13.433594 30-30zm-158.101562 372.320312c-4.148438 3.851563-8.46875 7.46875-12.917969 10.878907-22.179688 16.957031-48.023438 28.484375-75.460938 33.660156-11.050781 2.085937-22.273437 3.136719-33.519531 3.140625-74.144531.03125-140.722656-45.429688-167.679688-114.5-26.960937-69.074219-8.785156-147.613281 45.78125-197.820312 4.148438-3.851563 8.46875-7.46875 12.917969-10.878907 76.464844-58.222656 185.183594-46.074219 246.910157 27.589844 61.726562 73.660156 54.667968 182.832031-16.03125 247.929687zm0 0" fill="#7b7283"/>
    <path d="m366.191406 412.179688c10.011719 5.496093 19.472656 11.929687 28.257813 19.222656 26.640625-27.339844 42.613281-63.3125 45.035156-101.402344h-59.753906c-.605469 27.894531-5.160157 55.566406-13.539063 82.179688zm0 0" fill="#7b7283"/>
    <path d="m359.742188 330h-69.742188v60.46875c19.84375 1.050781 39.375 5.398438 57.789062 12.859375 7.25-23.796875 11.269532-48.460937 11.953126-73.328125zm0 0" fill="#7b7283"/>
    <path d="m290 410.421875v68.117187c20.160156-5.296874 38.242188-26.191406 51-56.347656-16.234375-6.714844-33.464844-10.6875-51-11.769531zm0 0" fill="#7b7283"/>
    <path d="m336.25 469.691406c1.71875-.644531 3.429688-1.339844 5.132812-2 2.507813-1.050781 5-2.148437 7.445313-3.332031 1.820313-.867187 3.632813-1.773437 5.410156-2.710937 2.433594-1.265626 4.800781-2.621094 7.164063-3.996094 1.71875-1.003906 3.4375-2.003906 5.125-3.140625 2.355468-1.523438 4.644531-3.140625 6.925781-4.789063 1.578125-1.152344 3.167969-2.261718 4.707031-3.472656.519532-.398438 1-.859375 1.519532-1.269531-6.472657-5.191407-13.34375-9.867188-20.546876-13.980469-5.753906 13.917969-13.460937 26.945312-22.882812 38.691406zm0 0" fill="#7b7283"/>
  </svg>