<svg height="480pt" viewBox="0 0 480.00048 480" width="480pt" xmlns="http://www.w3.org/2000/svg"><path d="m472 368v88l-8 16h-88v-104zm0 0" fill="#dadadc"/><path d="m472 16v144c0 4.417969-3.582031 8-8 8h-240c-4.417969 0-8-3.582031-8-8v-16h97.441406c3.992188-.449219 6.898438-3.996094 6.558594-8v-8c.339844-4.003906-2.566406-7.550781-6.558594-8h-11.601562c-3.992188-.449219-6.902344-3.996094-6.558594-8 .339844-4.003906-2.570312-7.550781-6.5625-8h-72.71875v-88c0-4.417969 3.582031-8 8-8h240c4.417969 0 8 3.582031 8 8zm0 0" fill="#8b5e3c"/><path d="m472 160c0 4.417969-3.582031 8-8 8h-240c-4.417969 0-8-3.582031-8-8v-144c0-4.417969 3.582031-8 8-8l3.199219 4.082031c54.425781 69.210938 130.144531 118.554688 215.441406 140.398438 17.4375 4.480469 29.359375 7.519531 29.359375 7.519531zm0 0" fill="#754c29"/><path d="m112 88c17.671875 0 32-14.328125 32-32v-16c0-17.671875-14.328125-32-32-32s-32 14.328125-32 32v16c0 17.671875 14.328125 32 32 32zm0 0" fill="#8b5e3c"/><path d="m24 240h24v-24h-40v8c0 8.835938 7.164062 16 16 16zm0 0" fill="#8b5e3c"/><path d="m296 304v16c0 17.671875 14.328125 32 32 32s32-14.328125 32-32v-16c0-17.671875-14.328125-32-32-32s-32 14.328125-32 32zm0 0" fill="#8b5e3c"/><path d="m360 368h-80v104h96v-104zm0 0" fill="#dadadc"/><path d="m200 304v16c0 17.671875 14.328125 32 32 32s32-14.328125 32-32v-16c0-17.671875-14.328125-32-32-32s-32 14.328125-32 32zm0 0" fill="#8b5e3c"/><path d="m184 368v88l8 16h88v-104zm0 0" fill="#dadadc"/><path d="m184 456 16 16h80l16-16-2.734375-.542969c-48.457031-9.695312-89.191406-42.300781-109.265625-87.457031zm0 0" fill="#97969b"/><path d="m280 456 16 16h80l16-16-2.734375-.542969c-48.457031-9.695312-89.191406-42.300781-109.265625-87.457031zm0 0" fill="#97969b"/><path d="m472 452.082031v3.917969l-8 16h-72l-16-16v-88c18.117188 40.753906 53.214844 71.496094 96 84.082031zm0 0" fill="#97969b"/><path d="m392 304v16c0 17.671875 14.328125 32 32 32s32-14.328125 32-32v-16c0-17.671875-14.328125-32-32-32s-32 14.328125-32 32zm0 0" fill="#8b5e3c"/><path d="m280 192c-17.671875 0-32 14.328125-32 32v16c0 17.671875 14.328125 32 32 32s32-14.328125 32-32v-16c0-17.671875-14.328125-32-32-32zm0 0" fill="#8b5e3c"/><path d="m376 192c-17.671875 0-32 14.328125-32 32v16c0 17.671875 14.328125 32 32 32s32-14.328125 32-32v-16c0-17.671875-14.328125-32-32-32zm0 0" fill="#8b5e3c"/><g fill="#c49a6c"><path d="m120 88c13.257812 0 24-14.328125 24-32v-16c0-17.671875-10.742188-32-24-32s-24 14.328125-24 32v16c0 17.671875 10.742188 32 24 32zm0 0"/><path d="m272 272c13.257812 0 24-14.328125 24-32v-16c0-17.671875-10.742188-32-24-32s-24 14.328125-24 32v16c0 17.671875 10.742188 32 24 32zm0 0"/><path d="m368 272c13.257812 0 24-14.328125 24-32v-16c0-17.671875-10.742188-32-24-32s-24 14.328125-24 32v16c0 17.671875 10.742188 32 24 32zm0 0"/><path d="m224 352c13.257812 0 24-14.328125 24-32v-16c0-17.671875-10.742188-32-24-32s-24 14.328125-24 32v16c0 17.671875 10.742188 32 24 32zm0 0"/><path d="m320 352c13.257812 0 24-14.328125 24-32v-16c0-17.671875-10.742188-32-24-32s-24 14.328125-24 32v16c0 17.671875 10.742188 32 24 32zm0 0"/><path d="m416 352c13.257812 0 24-14.328125 24-32v-16c0-17.671875-10.742188-32-24-32s-24 14.328125-24 32v16c0 17.671875 10.742188 32 24 32zm0 0"/></g><path d="m72 264h96l8-160h-128l8 160zm0 0" fill="#dadadc"/><path d="m304 120v8h-104c-11.601562 0-17.921875-12.398438-23.441406-19.199219.808594-2.691406 3.199218-4.601562 6-4.800781h98.160156c3.992188.449219 6.902344 3.996094 6.5625 8-.34375 4.003906 2.566406 7.550781 6.558594 8zm0 0" fill="#dadadc"/><path d="m312 128v8c.339844 4.003906-2.566406 7.550781-6.558594 8h-122.882812c-3.992188-.449219-6.898438-3.996094-6.558594-8v-24c0-.671875.082031-1.34375.238281-2 .070313-.410156.179688-.8125.320313-1.199219 5.519531 6.800781 11.839844 19.199219 23.441406 19.199219h104v-8h1.441406c3.992188.449219 6.898438 3.996094 6.558594 8zm0 0" fill="#818085"/><path d="m89.390625 104h-41.390625l8 160h50.3125c-28.132812-48.5-34.285156-106.6875-16.921875-160zm0 0" fill="#97969b"/><path d="m48 104h-24c-8.835938 0-16 7.164062-16 16v96h40zm0 0" fill="#97969b"/><path d="m24 104h-9.601562c-3.535157 0-6.398438 7.160156-6.398438 16v96h16zm0 0" fill="#6c6b6f"/><path d="m72 264 8 208h32v-208zm0 0" fill="#565659"/><path d="m112 472h32l8-208h-40zm0 0" fill="#565659"/><path d="m136 472h12.800781l3.199219-208h-16zm0 0" fill="#818085"/><path d="m96 264 3.199219 208h12.800781v-208zm0 0" fill="#818085"/><path d="m152 56v-16c0-22.089844-17.910156-40-40-40s-40 17.910156-40 40v16c0 22.089844 17.910156 40 40 40s40-17.910156 40-40zm-16 0c0 13.253906-10.746094 24-24 24s-24-10.746094-24-24v-16c0-13.253906 10.746094-24 24-24s24 10.746094 24 24zm0 0"/><path d="m368 320v-16c0-22.089844-17.910156-40-40-40s-40 17.910156-40 40v16c0 22.089844 17.910156 40 40 40s40-17.910156 40-40zm-16 0c0 13.253906-10.746094 24-24 24s-24-10.746094-24-24v-16c0-13.253906 10.746094-24 24-24s24 10.746094 24 24zm0 0"/><path d="m272 320v-16c0-22.089844-17.910156-40-40-40s-40 17.910156-40 40v16c0 22.089844 17.910156 40 40 40s40-17.910156 40-40zm-16 0c0 13.253906-10.746094 24-24 24s-24-10.746094-24-24v-16c0-13.253906 10.746094-24 24-24s24 10.746094 24 24zm0 0"/><path d="m464 320v-16c0-22.089844-17.910156-40-40-40s-40 17.910156-40 40v16c0 22.089844 17.910156 40 40 40s40-17.910156 40-40zm-16 0c0 13.253906-10.746094 24-24 24s-24-10.746094-24-24v-16c0-13.253906 10.746094-24 24-24s24 10.746094 24 24zm0 0"/><path d="m320 240v-16c0-22.089844-17.910156-40-40-40s-40 17.910156-40 40v16c0 22.089844 17.910156 40 40 40s40-17.910156 40-40zm-64 0v-16c0-13.253906 10.746094-24 24-24s24 10.746094 24 24v16c0 13.253906-10.746094 24-24 24s-24-10.746094-24-24zm0 0"/><path d="m416 240v-16c0-22.089844-17.910156-40-40-40s-40 17.910156-40 40v16c0 22.089844 17.910156 40 40 40s40-17.910156 40-40zm-64 0v-16c0-13.253906 10.746094-24 24-24s24 10.746094 24 24v16c0 13.253906-10.746094 24-24 24s-24-10.746094-24-24zm0 0"/><path d="m472 360h-288c-4.417969 0-8 3.582031-8 8v88c0 1.242188.285156 2.464844.839844 3.578125l8 16c1.355468 2.710937 4.128906 4.421875 7.160156 4.421875h272c3.046875.015625 5.839844-1.699219 7.199219-4.421875l8-16c.539062-1.117187.8125-2.339844.800781-3.578125v-88c0-4.417969-3.582031-8-8-8zm-280 94.113281v-78.113281h80v88h-75.054688zm168 9.886719h-72v-88h80v88zm104-9.886719-4.945312 9.886719h-75.054688v-88h80zm0 0"/><path d="m464 0h-240c-8.835938 0-16 7.164062-16 16v80h-25.457031c-1.25.019531-2.492188.214844-3.6875.585938-.910157-.367188-1.875-.566407-2.855469-.585938h-152c-13.253906 0-24 10.746094-24 24v104c0 13.253906 10.746094 24 24 24h23.199219l.800781 16.398438c.214844 4.261718 3.734375 7.605468 8 7.601562h8.304688l7.695312 200.3125c.167969 4.296875 3.699219 7.691406 8 7.6875h64c4.300781.003906 7.832031-3.390625 8-7.6875l7.695312-200.3125h8.304688c4.265625.003906 7.785156-3.339844 8-7.601562l5.601562-112.503907c.308594 0 .613282.105469.925782.105469h25.472656v8c0 8.835938 7.164062 16 16 16h240c8.835938 0 16-7.164062 16-16v-144c0-8.835938-7.164062-16-16-16zm-448 120c0-4.417969 3.582031-8 8-8h16v96h-24zm24 112h-16c-4.417969 0-8-3.582031-8-8h24zm40.3125 40h23.6875v192h-16.304688zm56 192h-16.3125v-192h23.6875zm24.085938-208h-96.789063l-7.203125-144h111.203125zm23.738281-144h95.136719c-.371094 8.425781 6.125 15.574219 14.550781 16h18.175781l-.121094 8h-127.878906zm279.863281 48h-240v-8h89.457031c8.421875-.425781 14.917969-7.574219 14.542969-16v-8c.375-8.425781-6.121094-15.574219-14.542969-16h-18.183593c.375-8.425781-6.121094-15.574219-14.546876-16h-56.726562v-80h240zm0 0"/></svg>