<svg height="512pt" viewBox="0 0 512.00018 512" width="512pt" xmlns="http://www.w3.org/2000/svg"><g fill="#c9f3ff"><path d="m335.582031 256c0-106.222656-36.402343-192.335938-81.3125-192.335938-44.90625 0-81.3125 86.113282-81.3125 192.335938s36.40625 192.332031 81.3125 192.332031c44.910157 0 81.3125-86.109375 81.3125-192.332031zm0 0"/><path d="m213.609375 185.589844c-91.988281 53.109375-148.359375 127.691406-125.90625 166.582031 22.457031 38.890625 115.230469 27.359375 207.21875-25.75 91.988281-53.113281 148.359375-127.695313 125.90625-166.582031-22.457031-38.890625-115.230469-27.363282-207.21875 25.75zm0 0"/><path d="m213.621094 326.40625c91.988281 53.113281 184.765625 64.640625 207.21875 25.75 22.453125-38.886719-33.917969-113.46875-125.90625-166.582031-91.988282-53.109375-184.761719-64.640625-207.214844-25.75-22.457031 38.890625 33.914062 113.472656 125.902344 166.582031zm0 0"/></g><path d="m318.410156 92.894531c0 11.65625-9.453125 21.109375-21.109375 21.109375-11.660156 0-21.113281-9.453125-21.113281-21.109375 0-11.660156 9.453125-21.113281 21.113281-21.113281 11.65625 0 21.109375 9.453125 21.109375 21.113281zm0 0" fill="#ffb954"/><path d="m112.613281 300.289062c0 11.65625-9.449219 21.109376-21.109375 21.109376-11.65625 0-21.109375-9.453126-21.109375-21.109376 0-11.660156 9.453125-21.113281 21.109375-21.113281 11.660156 0 21.109375 9.453125 21.109375 21.113281zm0 0" fill="#ffb954"/><path d="m395.121094 374.8125c0 11.660156-9.453125 21.109375-21.109375 21.109375-11.660157 0-21.109375-9.449219-21.109375-21.109375 0-11.65625 9.449218-21.109375 21.109375-21.109375 11.65625 0 21.109375 9.453125 21.109375 21.109375zm0 0" fill="#ffb954"/><path d="m222.042969 255.71875c0 23.386719 13.46875 44.054688 34.082031 56.613281 20.613281-12.558593 34.085938-33.226562 34.085938-56.613281s-13.472657-44.050781-34.085938-56.613281c-20.613281 12.5625-34.082031 33.226562-34.082031 56.613281zm0 0" fill="#36d28f"/><path d="m422.394531 200.335938c-5.011719-2.3125-10.957031-.128907-13.269531 4.886718l-.230469.496094c-2.339843 5.003906-.183593 10.957031 4.820313 13.296875 1.371094.640625 2.8125.945313 4.230468.945313 3.761719 0 7.363282-2.132813 9.0625-5.765626l.269532-.585937c2.320312-5.015625.128906-10.953125-4.882813-13.273437zm0 0"/><path d="m64.5625 315.84375c2.214844 3.835938 5.164062 7.082031 8.644531 9.613281-1.398437 11.914063.558594 22.5625 5.839844 31.707031 10.605469 18.375 33.238281 28.03125 64.785156 28.03125 7.105469 0 14.667969-.488281 22.640625-1.480468 5.058594-.628906 10.222656-1.449219 15.480469-2.453125 1.757813 5.054687 3.628906 9.9375 5.613281 14.628906 17.023438 40.265625 40.710938 62.441406 66.707032 62.441406 25.992187 0 49.683593-22.175781 66.707031-62.441406 1.988281-4.699219 3.859375-9.589844 5.621093-14.652344 6.054688 1.167969 11.960938 2.078125 17.699219 2.730469 2.230469 7.25 7.085938 13.707031 14.15625 17.789062 4.792969 2.765626 10.113281 4.179688 15.503907 4.179688 2.703124 0 5.421874-.355469 8.105468-1.074219 8.023438-2.148437 14.734375-7.296875 18.890625-14.492187 2.214844-3.839844 3.550781-8.015625 4.003907-12.292969 11.015624-4.75 19.261718-11.765625 24.539062-20.910156 12.996094-22.511719 5.640625-54.117188-20.71875-88.992188-3.074219-4.0625-6.367188-8.128906-9.867188-12.179687 3.332032-3.855469 6.484376-7.726563 9.429688-11.597656 3.34375-4.394532 2.492188-10.667969-1.902344-14.011719-4.398437-3.347657-10.667968-2.496094-14.015625 1.898437-2.273437 2.992188-4.6875 5.980469-7.214843 8.96875-12.457032-12.511718-26.765626-24.753906-42.5-36.375-2.214844-19.382812-5.675782-37.894531-10.25-54.890625 4.09375-.742187 8.125-1.367187 12.078124-1.859375 34.394532-4.273437 59.046876 1.816406 67.644532 16.703125 2.261718 3.917969 3.464844 8.515625 3.578125 13.667969.121093 5.445312 4.574219 9.777344 9.992187 9.777344h.226563c5.523437-.125 9.898437-4.699219 9.777343-10.222656-.1875-8.546876-2.292968-16.359376-6.257812-23.222657-12.996094-22.511719-44.039062-31.941406-87.425781-26.550781-5.0625.628906-10.234375 1.449219-15.5 2.457031-2.015625-5.824219-4.183594-11.394531-6.488281-16.691406 5.160156-5.558594 8.324218-12.992187 8.324218-21.152344 0-17.152343-13.953125-31.109375-31.109375-31.109375-4.496093 0-8.765625.964844-12.628906 2.691406-9.625-7.175781-19.832031-10.8125-30.398437-10.8125-25.992188 0-49.683594 22.175782-66.707032 62.441407-1.984375 4.691406-3.855468 9.574219-5.613281 14.628906-5.253906-1.003906-10.421875-1.824219-15.476563-2.453125-43.378906-5.390625-74.429687 4.039062-87.429687 26.550781-12.996094 22.511719-5.636719 54.117188 20.722656 88.988281 3.074219 4.074219 6.375 8.140626 9.878907 12.195313-4.03125 4.65625-7.769532 9.3125-11.207032 13.953125-7.683594-1.765625-15.625-.585938-22.488281 3.378906-7.195313 4.152344-12.34375 10.863282-14.496094 18.890625-2.152343 8.023438-1.050781 16.410157 3.105469 23.605469zm237.996094 72.261719c-13.496094 31.917969-31.09375 50.226562-48.285156 50.226562-17.191407 0-34.792969-18.308593-48.285157-50.226562-1.546875-3.65625-3.015625-7.441407-4.414062-11.34375 17.066406-4.527344 34.820312-10.800781 52.75-18.617188 17.894531 7.773438 35.65625 14.03125 52.664062 18.566407-1.40625 3.917968-2.878906 7.722656-4.429687 11.394531zm-119.597656-132.105469c0-13.660156.613281-27.078125 1.796874-40.09375 10.71875-7.582031 22.058594-14.851562 33.855469-21.664062 11.839844-6.835938 23.78125-13.023438 35.65625-18.507813 11.875 5.484375 23.816407 11.671875 35.65625 18.507813 11.828125 6.828124 23.144531 14.066406 33.824219 21.601562 1.207031 13.074219 1.832031 26.53125 1.832031 40.15625 0 13.667969-.613281 27.101562-1.800781 40.128906-10.691406 7.542969-22.019531 14.792969-33.855469 21.628906-11.828125 6.828126-23.757812 13.007813-35.621093 18.484376-11.925782-5.488282-23.890626-11.671876-35.691407-18.484376-11.839843-6.835937-23.164062-14.085937-33.851562-21.628906-1.1875-13.023437-1.800781-26.460937-1.800781-40.128906zm-19.382813 24.105469c-9.671875-7.851563-18.613281-15.917969-26.6875-24.085938 8.0625-8.136719 17.011719-16.203125 26.683594-24.0625-.40625 7.921875-.613281 15.945313-.613281 24.042969 0 8.117188.207031 16.164062.617187 24.105469zm24.464844-90.570313c1.964843-12.324218 4.484375-24.117187 7.527343-35.210937 11.121094 2.910156 22.585938 6.621093 34.234376 11.078125-7.085938 3.617187-14.15625 7.457031-21.191407 11.519531-7.015625 4.050781-13.878906 8.265625-20.570312 12.613281zm132.453125 132.953125c-1.960938 12.300781-4.480469 24.078125-7.515625 35.152344-11.078125-2.914063-22.539063-6.628906-34.179688-11.078125 7.0625-3.605469 14.113281-7.4375 21.125-11.484375 7.03125-4.058594 13.894531-8.265625 20.570313-12.589844zm-111.882813 12.589844c7.019531 4.050781 14.105469 7.886719 21.214844 11.507813-11.65625 4.460937-23.128906 8.171874-34.257813 11.085937-3.039062-11.085937-5.558593-22.871094-7.523437-35.183594 6.675781 4.324219 13.539063 8.527344 20.566406 12.589844zm175.019531 45.289063c-3.0625 5.308593-9.871093 7.132812-15.175781 4.066406-5.304687-3.0625-7.128906-9.871094-4.066406-15.175782 1.480469-2.570312 3.878906-4.40625 6.746094-5.175781.957031-.257812 1.929687-.382812 2.894531-.382812 1.921875 0 3.824219.503906 5.535156 1.492187 2.570313 1.484375 4.410156 3.878906 5.175782 6.746094.769531 2.867188.375 5.859375-1.109376 8.429688zm9.1875-100.132813c20.898438 27.648437 27.953126 52.042969 19.355469 66.929687-2.566406 4.453126-6.558593 8.125-11.890625 10.976563-2.652344-4.195313-6.296875-7.714844-10.71875-10.269531-7.195312-4.152344-15.578125-5.257813-23.605468-3.105469-8.027344 2.148437-14.738282 7.296875-18.890626 14.492187-.875 1.511719-1.597656 3.070313-2.191406 4.652344-4.03125-.492187-8.164062-1.132812-12.367187-1.898437 4.601562-17.023438 8.046875-35.519531 10.242187-54.929688 15.710938-11.609375 30.003906-23.839843 42.449219-36.339843 2.679687 3.160156 5.226563 6.328124 7.617187 9.492187zm-21.148437-24.238281c-8.082031 8.175781-17.023437 16.25-26.707031 24.109375.410156-7.945313.617187-15.988281.617187-24.105469 0-8.105469-.21875-16.160156-.636719-24.125 9.6875 7.863281 18.640626 15.941406 26.726563 24.121094zm-51.234375-66.523438c-6.652344-4.3125-13.5-8.503906-20.511719-12.554687-7.03125-4.058594-14.101562-7.902344-21.183593-11.519531 11.636718-4.449219 23.089843-8.15625 34.203124-11.066407 3.015626 11.050781 5.523438 22.835938 7.492188 35.140625zm-12.027344-96.578125c0 6.125-4.984375 11.109375-11.109375 11.109375-6.128906 0-11.113281-4.984375-11.113281-11.109375 0-6.128906 4.984375-11.109375 11.113281-11.109375 6.125 0 11.109375 4.980469 11.109375 11.109375zm-102.425781 30.996094c13.496094-31.917969 31.097656-50.226563 48.285156-50.226563 5.148438 0 10.328125 1.625 15.46875 4.820313-2.261719 4.3125-3.550781 9.210937-3.550781 14.410156 0 17.152344 13.957031 31.109375 31.109375 31.109375 1.746094 0 3.457031-.152344 5.125-.429687 1.589844 3.738281 3.097656 7.636719 4.539063 11.660156-17.046876 4.527344-34.78125 10.789063-52.691407 18.59375-17.910156-7.804687-35.648437-14.070313-52.695312-18.59375 1.398437-3.898437 2.867187-7.6875 4.410156-11.34375zm-90.261719 107.871094c-20.898437-27.648438-27.953125-52.042969-19.355468-66.929688 8.59375-14.890625 33.246093-20.980469 67.640624-16.703125 3.9375.488282 7.953126 1.109375 12.027344 1.847656-4.609375 17.042969-8.054687 35.558594-10.25 54.992188-15.679687 11.609375-29.980468 23.863281-42.410156 36.324219-2.691406-3.171875-5.25-6.351563-7.652344-9.53125zm50.066406 75.320312c2.195313 19.414063 5.640626 37.910157 10.246094 54.9375-4.078125.738281-8.089844 1.359375-12.027344 1.847657-34.394531 4.273437-59.046874-1.8125-67.640624-16.703126-2.574219-4.453124-3.757813-9.746093-3.5625-15.792968 4.960937-.203125 9.832031-1.589844 14.253906-4.140625 7.195312-4.15625 12.34375-10.863281 14.496094-18.890625 2.148437-8.027344 1.046874-16.410156-3.109376-23.605469-.867187-1.503906-1.851562-2.910156-2.929687-4.226563 2.441406-3.246093 5.0625-6.5 7.828125-9.757812 12.441406 12.496094 26.734375 24.726562 42.445312 36.332031zm-85.015624-9.667969c.769531-2.867187 2.605468-5.265624 5.175781-6.746093 1.714843-.988281 3.613281-1.496094 5.539062-1.496094.964844 0 1.9375.128906 2.894531.386719 2.863282.765625 5.261719 2.605468 6.746094 5.175781 1.480469 2.570313 1.875 5.5625 1.109375 8.429687-.769531 2.867188-2.605469 5.265626-5.175781 6.746094-5.304688 3.0625-12.113281 1.238282-15.179688-4.066406-1.480468-2.570312-1.878906-5.566406-1.109374-8.429688zm0 0"/><path d="m250.921875 320.871094c1.597656.976562 3.402344 1.460937 5.203125 1.460937 1.804688 0 3.605469-.484375 5.203125-1.460937 24.347656-14.832032 38.882813-39.1875 38.882813-65.152344 0-25.960938-14.535157-50.316406-38.882813-65.148438-3.195313-1.949218-7.210937-1.949218-10.40625 0-24.34375 14.832032-38.878906 39.1875-38.878906 65.148438 0 25.964844 14.535156 50.320312 38.878906 65.152344zm29.289063-65.152344c0 12.875-5.074219 25.304688-14.085938 35.457031v-70.910156c9.011719 10.148437 14.085938 22.578125 14.085938 35.453125zm-34.085938-35.453125v70.910156c-9.011719-10.152343-14.082031-22.582031-14.082031-35.457031s5.070312-25.304688 14.082031-35.453125zm0 0"/><path d="m82.050781 92.050781c2.558594 0 5.117188-.980469 7.070313-2.929687l.21875-.222656c3.90625-3.902344 3.90625-10.234376 0-14.140626s-10.234375-3.90625-14.140625 0l-.222657.21875c-3.902343 3.90625-3.902343 10.238282 0 14.144532 1.957032 1.953125 4.515626 2.929687 7.074219 2.929687zm0 0"/><path d="m437.019531 74.976562c-43.449219-43.449218-101.085937-69.835937-162.292969-74.296874-60.585937-4.410157-120.792968 12.78125-169.566406 48.433593-4.460937 3.257813-5.433594 9.515625-2.171875 13.972657 3.257813 4.460937 9.515625 5.433593 13.972657 2.175781 94.421874-69.015625 223.078124-58.980469 305.914062 23.859375 44.578125 44.574218 69.125 103.839844 69.125 166.878906 0 63.035156-24.546875 122.300781-69.125 166.875-92.015625 92.019531-241.738281 92.019531-333.753906 0-82.683594-82.683594-92.828125-211.195312-24.117188-305.566406 3.253906-4.464844 2.269532-10.71875-2.195312-13.96875s-10.71875-2.269532-13.972656 2.195312c-35.503907 48.769532-52.601563 108.933594-48.140626 169.414063 4.511719 61.121093 30.890626 118.679687 74.28125 162.070312 48.355469 48.351563 112.640626 74.980469 181.023438 74.980469 68.378906 0 132.667969-26.628906 181.019531-74.980469 48.351563-48.355469 74.980469-112.640625 74.980469-181.023437 0-68.378906-26.628906-132.664063-74.980469-181.019532zm0 0"/></svg>