<!--?xml version="1.0" standalone="no"?-->
              <svg id="sw-js-blob-svg" viewBox="0 0 100 100" xmlns="http://www.w3.org/2000/svg" version="1.1">
                    <defs> 
                        <linearGradient id="sw-gradient" x1="0" x2="1" y1="1" y2="0">
                            <stop id="stop1" stop-color="rgba(248, 117, 55, 1)" offset="0%"></stop>
                            <stop id="stop2" stop-color="rgba(251, 168, 31, 1)" offset="100%"></stop>
                        </linearGradient>
                    </defs>
                <path fill="#54374f" d="M17.3,-20.6C24.9,-18.2,35.3,-16.5,39.7,-11C44,-5.5,42.3,3.8,38.3,11.3C34.3,18.7,27.9,24.2,21.1,30.2C14.4,36.2,7.2,42.7,1.3,41C-4.7,39.2,-9.3,29.3,-14.4,22.7C-19.5,16.2,-25,13,-26.8,8.5C-28.6,3.9,-26.7,-2.1,-24.1,-7.1C-21.4,-12.1,-18,-16.1,-13.9,-19.6C-9.7,-23.1,-4.9,-26.1,0,-26.1C4.8,-26,9.7,-23,17.3,-20.6Z" width="100%" height="100%" transform="translate(50 50)" stroke-width="0" style="transition: all 0.3s ease 0s;"></path>
              </svg>