<svg width="64" height="64" viewBox="0 0 64 64" fill="none" xmlns="http://www.w3.org/2000/svg">
<g clip-path="url(#clip0)">
<path d="M-1.02415 62.941C-1.02415 62.3585 -0.574155 62.1601 -0.0241547 62.5C0.525845 62.8399 0.975845 63.3165 0.975845 63.559C0.975845 63.8016 0.525845 64 -0.0241547 64C-0.574155 64 -1.02415 63.5234 -1.02415 62.941ZM61.4758 63C61.8158 62.45 62.2923 62 62.5349 62C62.7774 62 62.9758 62.45 62.9758 63C62.9758 63.55 62.4993 64 61.9168 64C61.3344 64 61.1359 63.55 61.4758 63ZM2.65778 60.3486C2.28272 59.9735 1.97585 48.5148 1.97585 34.8847V10.1028L16.4758 9.80138C24.4508 9.63562 37.5085 9.63571 45.4929 9.80157L60.01 10.1031L59.7429 35.3016L59.4758 60.5L31.4078 60.7653C15.9703 60.9112 3.03284 60.7237 2.65778 60.3486V60.3486ZM58.4758 46V32.5H44.9758H31.4758L31.1935 44.9445C31.0382 51.789 31.1416 57.9897 31.4233 58.7237C31.8224 59.7638 34.8644 59.9967 45.2057 59.7792L58.4758 59.5V46ZM28.9758 55C28.9758 54.3846 23.9758 54 15.9758 54C7.97585 54 2.97585 54.3846 2.97585 55C2.97585 55.6154 7.97585 56 15.9758 56C23.9758 56 28.9758 55.6154 28.9758 55ZM28.9758 51C28.9758 50.3846 23.9758 50 15.9758 50C7.97585 50 2.97585 50.3846 2.97585 51C2.97585 51.6154 7.97585 52 15.9758 52C23.9758 52 28.9758 51.6154 28.9758 51ZM6.97585 47C6.97585 46.45 6.52585 46 5.97585 46C5.42585 46 4.97585 46.45 4.97585 47C4.97585 47.55 5.42585 48 5.97585 48C6.52585 48 6.97585 47.55 6.97585 47ZM28.9758 47C28.9758 46.4 24.9758 46 18.9758 46C12.9758 46 8.97585 46.4 8.97585 47C8.97585 47.6 12.9758 48 18.9758 48C24.9758 48 28.9758 47.6 28.9758 47ZM28.4758 26V12.5H15.9758H3.47585L3.1935 24.9445C3.03821 31.789 3.14191 37.9904 3.424 38.7255C3.82175 39.762 6.68985 39.9988 16.2063 39.7809L28.4758 39.5V26ZM13.1758 31.8C11.3385 29.9627 11.7413 28.2946 14.1759 27.6579C16.9813 26.9243 21.3504 28.9906 21.7869 31.2576C22.0593 32.672 21.3933 33 18.2492 33C16.1188 33 13.8358 32.46 13.1758 31.8V31.8ZM14.5473 21.4286C12.5774 19.4587 12.5569 18.3747 14.4759 17.6384C16.4607 16.8767 18.682 17.7917 19.4018 19.6676C20.6686 22.9688 17.307 24.1883 14.5473 21.4286H14.5473ZM58.9758 28C58.9758 27.381 53.6425 27 44.9758 27C36.3092 27 30.9758 27.381 30.9758 28C30.9758 28.6191 36.3092 29 44.9758 29C53.6425 29 58.9758 28.6191 58.9758 28ZM58.9758 24C58.9758 23.381 53.6425 23 44.9758 23C36.3092 23 30.9758 23.381 30.9758 24C30.9758 24.6191 36.3092 25 44.9758 25C53.6425 25 58.9758 24.6191 58.9758 24ZM58.9758 20C58.9758 19.381 53.6425 19 44.9758 19C36.3092 19 30.9758 19.381 30.9758 20C30.9758 20.6191 36.3092 21 44.9758 21C53.6425 21 58.9758 20.6191 58.9758 20ZM34.9758 16C34.9758 15.45 34.5258 15 33.9758 15C33.4258 15 32.9758 15.45 32.9758 16C32.9758 16.55 33.4258 17 33.9758 17C34.5258 17 34.9758 16.55 34.9758 16ZM58.9758 16C58.9758 15.3939 54.6425 15 47.9758 15C41.3092 15 36.9758 15.3939 36.9758 16C36.9758 16.6061 41.3092 17 47.9758 17C54.6425 17 58.9758 16.6061 58.9758 16ZM2.1563 5.75C2.46557 3.5724 2.82979 3.5 13.4758 3.5C24.1219 3.5 24.4861 3.5724 24.7954 5.75C25.1111 7.97276 24.974 8 13.4758 8C1.97764 8 1.84062 7.97276 2.1563 5.75ZM19.9758 5C19.9758 4.41176 16.4758 4 11.4758 4C6.47585 4 2.97585 4.41176 2.97585 5C2.97585 5.58824 6.47585 6 11.4758 6C16.4758 6 19.9758 5.58824 19.9758 5ZM23.9758 5C23.9758 4.45 23.5258 4 22.9758 4C22.4258 4 21.9758 4.45 21.9758 5C21.9758 5.55 22.4258 6 22.9758 6C23.5258 6 23.9758 5.55 23.9758 5ZM-1.02415 1C-1.02415 0.45 -0.547594 0 0.0348663 0C0.617326 0 0.815765 0.45 0.475845 1C0.135925 1.55 -0.340636 2 -0.583176 2C-0.825716 2 -1.02415 1.55 -1.02415 1ZM61.4758 1C61.1359 0.45 61.3344 0 61.9168 0C62.4993 0 62.9758 0.45 62.9758 1C62.9758 1.55 62.7774 2 62.5349 2C62.2923 2 61.8158 1.55 61.4758 1ZM26.7258 0.337723C27.4133 0.0603108 28.5383 0.0603108 29.2258 0.337723C29.9133 0.615136 29.3508 0.84211 27.9758 0.84211C26.6008 0.84211 26.0383 0.615136 26.7258 0.337723Z" fill="#F8F8F8"/>
<path d="M1.97677 60.1289C1.0291 58.987 0.146018 14.9803 0.979308 10.4223C1.13014 9.59735 1.4902 20.3973 1.77946 34.4223L2.30539 59.9223H30.8054H59.3054L59.8313 34.4223L60.3572 8.92235L60.5813 33.9723C60.746 52.3809 60.4872 59.3405 59.6054 60.2224C57.8121 62.0156 3.46947 61.9275 1.97677 60.1289V60.1289ZM8.80539 33.3566C8.80539 32.7705 9.29474 31.3765 9.89284 30.2589C10.9764 28.2344 10.9858 28.2349 12.5134 30.4158C13.7744 32.2162 14.8234 32.5428 18.4259 32.2563C21.4609 32.0149 22.8054 32.2939 22.8054 33.1651C22.8054 34.055 20.7601 34.4223 15.8054 34.4223C11.5175 34.4223 8.80539 34.0094 8.80539 33.3566ZM13.3768 22.8509C11.5938 21.0679 11.3195 19.4223 12.8054 19.4223C13.3554 19.4223 13.8054 19.8638 13.8054 20.4033C13.8054 20.9428 14.9731 21.6773 16.4004 22.0356C18.3177 22.5168 18.6442 22.9095 17.6504 23.5393C15.7628 24.7356 15.1652 24.6393 13.3768 22.8509V22.8509ZM0.905074 5.87235C0.723094 2.1298 2.69445 1.42235 13.3054 1.42235C23.9163 1.42235 25.8877 2.1298 25.7057 5.87235C25.6222 7.58966 25.4932 7.51663 24.9106 5.42235C24.2232 2.95094 24.0904 2.92235 13.3054 2.92235C2.52035 2.92235 2.38761 2.95094 1.70015 5.42235C1.11761 7.51663 0.988574 7.58966 0.905074 5.87235V5.87235Z" fill="#DBDBDB"/>
<path d="M33.6438 5.89406C33.3181 5.04534 33.3288 4.07383 33.6674 3.73517C34.0061 3.3965 40.2492 3.21854 47.5409 3.3397C57.3891 3.50333 61.1692 3.92384 62.2392 4.97477C63.0315 5.75291 63.3445 6.72475 62.9348 7.13441C62.5252 7.54408 61.7645 7.21729 61.2444 6.40822C60.4143 5.11701 60.1765 5.12056 59.2987 6.43718C58.4098 7.77052 58.1876 7.77052 57.2987 6.43718C56.4098 5.10385 56.1876 5.10385 55.2987 6.43718C54.4098 7.77052 54.1792 7.77052 53.2226 6.43718C52.4123 5.30773 52.0212 5.24597 51.6393 6.18718C50.8322 8.17611 34.4169 7.90872 33.6438 5.89406V5.89406Z" fill="#58C8F9"/>
<path d="M46.7154 56.0607C43.817 55.2803 40.0429 53.9165 38.3286 53.03L35.2115 51.4181L38.8379 47.7918L42.4642 44.1655L47.2838 48.9126C49.9345 51.5235 52.4153 53.3478 52.7965 52.9665C53.1777 52.5853 52.7296 51.4335 51.8006 50.4069C50.2079 48.6471 50.2343 48.4176 52.2631 46.3888C54.3587 44.2932 54.4676 44.2851 56.45 46.0791C57.9636 47.4489 58.4853 49.163 58.4853 52.7661C58.4853 57.5791 58.4638 57.6106 55.2353 57.5453C53.4478 57.5091 49.6139 56.841 46.7154 56.0607V56.0607Z" fill="#7AF791"/>
<path d="M34.893 41.3941L35.1933 34.3941H46.6933H58.1933L58.5068 39.3565L58.8202 44.3189L56.7395 42.4359C54.6897 40.5808 54.6147 40.5952 51.6761 43.4106L48.6933 46.2682L45.6851 43.3862L42.6769 40.5042L38.6348 44.4491L34.5926 48.3941L34.893 41.3941ZM7.13843 36.6116C6.85292 35.8676 6.74847 30.5643 6.90631 24.8264L7.19331 14.3941H17.6933H28.1933V25.8941V37.3941L17.9254 37.6792C10.0154 37.8989 7.53834 37.6538 7.13843 36.6116V36.6116ZM26.6933 33.5304C26.6933 31.259 25.866 29.3394 24.1455 27.619C22.5948 26.0683 22.0078 24.8177 22.6455 24.4236C24.256 23.4283 23.8885 18.7672 22.0383 16.7228C19.9776 14.4458 15.9372 14.3633 13.522 16.549C11.6049 18.284 11.0237 23.3622 12.6287 24.3542C13.1432 24.6721 12.4682 26.0282 11.1287 27.3677C9.46406 29.0324 8.69331 30.9252 8.69331 33.3486V36.8941H17.6933H26.6933V33.5304ZM31.0815 8.13355C30.4699 7.72683 29.7604 5.93156 29.5046 4.14406C28.9347 0.160475 31.2563 -0.385573 32.6933 3.39406L33.6438 5.89406H48.1686C57.1851 5.89406 62.6933 6.27329 62.6933 6.89406C62.6933 7.51282 57.3872 7.89406 48.7751 7.89406C41.1201 7.89406 34.2576 8.11433 33.5251 8.38355C32.7926 8.65277 31.693 8.54027 31.0815 8.13355Z" fill="#30A9F4"/>
<path d="M34.4758 54.5C34.4758 52.575 34.6436 51 34.8487 51C35.0538 51 37.3836 51.9564 40.026 53.1252C42.6685 54.2941 48.0132 55.8285 51.9032 56.535L58.9758 57.8195L46.7258 57.9097L34.4758 58V54.5Z" fill="#1ECC3D"/>
<path d="M2.69833 62.4433C0.509134 60.9099 0.475845 60.5353 0.475845 37.4433C0.475845 22.7692 0.843113 14 1.45773 14C2.06517 14 2.54187 23.0572 2.70773 37.75L2.97585 61.5H32.4758H61.9758L62.2427 35.75L62.5096 10H47.9927C38.9815 10 33.4758 9.62075 33.4758 9C33.4758 8.3791 38.998 8 48.0423 8H62.6087L62.2923 5.25L61.9758 2.5L48.7258 2.22098C31.3131 1.85429 31.057 0 48.4191 0C60.6607 0 61.4468 0.12049 62.9191 2.22251C64.2374 4.10456 64.4758 8.70018 64.4758 32.2225C64.4758 58.6667 64.3798 60.096 62.4758 62C60.5718 63.904 59.1425 64 32.6983 64C9.17601 64 4.58038 63.7615 2.69833 62.4433V62.4433ZM33.6758 58.8C32.021 57.1451 32.021 34.8549 33.6758 33.2C35.3307 31.5451 57.621 31.5451 59.2758 33.2C60.9307 34.8549 60.9307 57.1451 59.2758 58.8C57.621 60.4549 35.3307 60.4549 33.6758 58.8V58.8ZM58.4758 52.655C58.4758 48.5491 58.004 46.883 56.4405 45.4681C54.4585 43.6743 54.3495 43.6819 52.2728 45.7586C50.4758 47.5556 50.3465 48.1392 51.4506 49.4696C52.1712 50.3379 52.4623 51.3469 52.0974 51.7118C51.7325 52.0767 49.4195 50.3983 46.9576 47.9821L42.4812 43.5889L38.4785 47.4974C35.4079 50.4957 34.4758 52.1737 34.4758 54.7029V58H46.4758H58.4758V52.655ZM45.4676 43.4921L48.4758 46.3742L51.4586 43.5165C54.3656 40.7314 54.4926 40.7052 56.4586 42.4844C58.4568 44.2927 58.4758 44.2613 58.4758 39.155V34H46.4758H34.4758V41.2029V48.4059L38.4676 44.508L42.4594 40.6101L45.4676 43.4921ZM4.47585 55C4.47585 54.3846 9.47585 54 17.4758 54C25.4758 54 30.4758 54.3846 30.4758 55C30.4758 55.6154 25.4758 56 17.4758 56C9.47585 56 4.47585 55.6154 4.47585 55ZM4.47585 51C4.47585 50.3846 9.47585 50 17.4758 50C25.4758 50 30.4758 50.3846 30.4758 51C30.4758 51.6154 25.4758 52 17.4758 52C9.47585 52 4.47585 51.6154 4.47585 51ZM6.47585 47C6.47585 46.45 6.92585 46 7.47585 46C8.02585 46 8.47585 46.45 8.47585 47C8.47585 47.55 8.02585 48 7.47585 48C6.92585 48 6.47585 47.55 6.47585 47ZM10.4758 47C10.4758 46.4 14.4758 46 20.4758 46C26.4758 46 30.4758 46.4 30.4758 47C30.4758 47.6 26.4758 48 20.4758 48C14.4758 48 10.4758 47.6 10.4758 47ZM5.67584 38.8C4.02096 37.1451 4.02096 14.8549 5.67584 13.2C7.32148 11.5544 27.6302 11.5544 29.2758 13.2C30.9307 14.8549 30.9307 37.1451 29.2758 38.8C27.6302 40.4456 7.32148 40.4456 5.67584 38.8ZM28.4758 26V14H17.4758H6.47585V26V38H17.4758H28.4758V26ZM8.80539 33.3566C9.13058 31.3527 10.2846 28.7652 11.3699 27.6066C12.8855 25.9887 13.1057 25.0773 12.3193 23.6776C9.67555 18.972 14.9509 13.5285 19.9483 15.8055C22.7921 17.1012 24.1272 21.017 22.6324 23.6776C21.846 25.0773 22.0662 25.9887 23.5818 27.6066C24.6671 28.7652 25.8211 31.3527 26.1463 33.3566L26.7375 37H17.4758H8.21416L8.80539 33.3566ZM24.4758 33C24.4758 30.052 20.9152 27 17.4758 27C14.0365 27 10.4758 30.052 10.4758 33C10.4758 34.8095 11.1425 35 17.4758 35C23.8092 35 24.4758 34.8095 24.4758 33ZM20.436 23.548C23.0924 20.3472 19.1907 15.4303 15.7258 17.6123C13.5041 19.0114 12.9611 21.6749 14.5157 23.548C16.0603 25.4092 18.8914 25.4092 20.436 23.548ZM32.4758 28C32.4758 27.381 37.8092 27 46.4758 27C55.1425 27 60.4758 27.381 60.4758 28C60.4758 28.6191 55.1425 29 46.4758 29C37.8092 29 32.4758 28.6191 32.4758 28ZM32.4758 24C32.4758 23.381 37.8092 23 46.4758 23C55.1425 23 60.4758 23.381 60.4758 24C60.4758 24.6191 55.1425 25 46.4758 25C37.8092 25 32.4758 24.6191 32.4758 24ZM32.4758 20C32.4758 19.381 37.8092 19 46.4758 19C55.1425 19 60.4758 19.381 60.4758 20C60.4758 20.6191 55.1425 21 46.4758 21C37.8092 21 32.4758 20.6191 32.4758 20ZM34.4758 16C34.4758 15.45 34.9258 15 35.4758 15C36.0258 15 36.4758 15.45 36.4758 16C36.4758 16.55 36.0258 17 35.4758 17C34.9258 17 34.4758 16.55 34.4758 16ZM38.4758 16C38.4758 15.3939 42.8092 15 49.4758 15C56.1425 15 60.4758 15.3939 60.4758 16C60.4758 16.6061 56.1425 17 49.4758 17C42.8092 17 38.4758 16.6061 38.4758 16ZM0.475845 7.65499C0.475845 0.82436 2.05604 0 15.1496 0C24.552 0 26.4083 0.267912 27.8208 1.82874C28.7311 2.83455 29.4758 4.63455 29.4758 5.82874C29.4758 7.02294 29.9258 8 30.4758 8C31.0258 8 31.4758 8.45 31.4758 9C31.4758 9.62069 25.9758 10 16.9758 10C7.97585 10 2.47585 10.3793 2.47585 11C2.47585 11.55 2.02585 12 1.47585 12C0.925845 12 0.475845 10.0447 0.475845 7.65499V7.65499ZM27.2923 5.25L26.9758 2.5H14.9758H2.97585L2.65941 5.25L2.34299 8H14.9758H27.6087L27.2923 5.25ZM4.47585 5C4.47585 4.41176 7.97585 4 12.9758 4C17.9758 4 21.4758 4.41176 21.4758 5C21.4758 5.58824 17.9758 6 12.9758 6C7.97585 6 4.47585 5.58824 4.47585 5ZM23.4758 5C23.4758 4.45 23.9258 4 24.4758 4C25.0258 4 25.4758 4.45 25.4758 5C25.4758 5.55 25.0258 6 24.4758 6C23.9258 6 23.4758 5.55 23.4758 5ZM50.4758 5C50.4758 4.45 50.9258 4 51.4758 4C52.0258 4 52.4758 4.45 52.4758 5C52.4758 5.55 52.0258 6 51.4758 6C50.9258 6 50.4758 5.55 50.4758 5ZM54.4758 5C54.4758 4.45 54.9258 4 55.4758 4C56.0258 4 56.4758 4.45 56.4758 5C56.4758 5.55 56.0258 6 55.4758 6C54.9258 6 54.4758 5.55 54.4758 5ZM58.4758 5C58.4758 4.45 58.9258 4 59.4758 4C60.0258 4 60.4758 4.45 60.4758 5C60.4758 5.55 60.0258 6 59.4758 6C58.9258 6 58.4758 5.55 58.4758 5ZM31.4758 1C31.4758 0.45 31.9258 0 32.4758 0C33.0258 0 33.4758 0.45 33.4758 1C33.4758 1.55 33.0258 2 32.4758 2C31.9258 2 31.4758 1.55 31.4758 1Z" fill="#030404"/>
<path d="M34.855 40.8534V34.3792H46.513H58.171V38.9419V43.5047L56.707 42.2728C55.9018 41.5952 54.9054 41.0409 54.4927 41.0409C54.0801 41.0409 52.5944 42.1267 51.1911 43.4539L48.6397 45.8669L45.5584 43.1617L42.4771 40.4564L38.666 43.892L34.855 47.3276V40.8534Z" fill="#30A9F4"/>
<path d="M6.78067 26.0521V14.3941H17.487H28.1933V26.0521V37.71H17.487H6.78067V26.0521ZM26.7658 35.8931C26.7658 33.7015 25.4633 29.9727 23.8436 27.5274C22.4637 25.4441 22.3775 25.1021 22.8814 23.7085C23.6894 21.4741 23.5589 19.5994 22.4711 17.8152C20.463 14.5216 15.9779 14.1499 13.0855 17.0375C11.3818 18.7384 11.0548 20.9523 12.0752 23.8792C12.5339 25.1952 12.4743 25.6026 11.6622 26.7009C9.86427 29.1328 8.69982 31.9364 8.38889 34.5819L8.07715 37.2342H17.4215H26.7658V35.8931Z" fill="#30A9F4"/>
</g>
<defs>
<clipPath id="clip0">
<rect width="64" height="64" fill="white"/>
</clipPath>
</defs>
</svg>
