<svg width="46" height="46" viewBox="0 0 46 46" fill="none" xmlns="http://www.w3.org/2000/svg">
<path d="M13.683 35.435L31.68 35.431C33.395 35.435 34.891 34.279 35.325 32.62C35.761 30.962 35.027 29.222 33.531 28.388L28.427 25.505L34.036 19.898C35.503 18.428 35.511 16.044 34.033 14.569L30.784 11.32C29.309 9.84701 26.925 9.85001 25.458 11.32L19.846 16.928L16.968 11.822C16.13 10.329 14.387 9.59201 12.732 10.03C11.074 10.463 9.918 11.958 9.925 13.671L9.919 31.668C9.919 33.749 11.602 35.435 13.683 35.435Z" fill="#F5F5F5"/>
<path d="M-3.8147e-06 34.377C-3.8147e-06 40.194 4.71499 44.909 10.531 44.909H34.867C40.683 44.909 45.398 40.194 45.398 34.377V11.021C45.398 5.204 40.683 0.488998 34.867 0.488998H10.531C4.71499 0.488998 -3.8147e-06 5.204 -3.8147e-06 11.021V34.377ZM4.771 10.99C4.771 7.826 7.336 5.261 10.499 5.261H34.838C38 5.261 40.566 7.825 40.566 10.99V34.346C40.566 37.51 38.002 40.075 34.838 40.075H10.499C7.337 40.075 4.771 37.512 4.771 34.346V10.99Z" fill="#F5F5F5"/>
</svg>
