<svg width="46" height="46" viewBox="0 0 46 46" fill="none" xmlns="http://www.w3.org/2000/svg">
<g clip-path="url(#clip0)">
<path d="M31.715 35.435L13.718 35.431C12.003 35.435 10.507 34.279 10.073 32.62C9.637 30.962 10.371 29.222 11.867 28.388L16.971 25.505L11.362 19.898C9.895 18.428 9.887 16.044 11.365 14.569L14.614 11.32C16.089 9.84701 18.473 9.85001 19.94 11.32L25.552 16.928L28.43 11.822C29.268 10.329 31.011 9.59201 32.666 10.03C34.324 10.463 35.48 11.958 35.473 13.671L35.479 31.668C35.479 33.749 33.796 35.435 31.715 35.435Z" fill="whitesmoke"/>
<path d="M45.398 34.377C45.398 40.194 40.683 44.909 34.867 44.909H10.531C4.715 44.909 0 40.194 0 34.377V11.021C0 5.204 4.715 0.488998 10.531 0.488998H34.867C40.683 0.488998 45.398 5.204 45.398 11.021V34.377ZM40.627 10.99C40.627 7.826 38.062 5.261 34.899 5.261H10.56C7.398 5.261 4.832 7.825 4.832 10.99V34.346C4.832 37.51 7.396 40.075 10.56 40.075H34.899C38.061 40.075 40.627 37.512 40.627 34.346V10.99V10.99Z" fill="whitesmoke"/>
</g>
<defs>
<clipPath id="clip0">
<rect width="45.398" height="45.398" fill="white" transform="matrix(-1 0 0 1 45.398 0)"/>
</clipPath>
</defs>
</svg>
