<svg width="122" height="28" viewBox="0 0 122 28" fill="none" xmlns="http://www.w3.org/2000/svg">
<path d="M38.1975 14.0417V0.8125H38.8589C39.5057 0.8125 39.5204 0.8566 39.5204 2.79688C39.5204 3.88828 39.6318 4.78125 39.768 4.78125C39.9042 4.78125 40.2751 4.33477 40.5921 3.78906C41.3158 2.54322 42.6861 1.37734 43.9618 0.921906C45.186 0.484861 48.6648 0.445123 49.8658 0.854466C53.2948 2.02323 55.6652 6.01071 55.6568 10.5964C55.6446 17.3166 51.4054 21.3371 45.3486 20.3726C43.3245 20.0503 41.7324 19.1941 40.5982 17.8181L39.785 16.8315V22.0512V27.2708H38.9912H38.1975V14.0417ZM49.446 18.8942C51.2017 18.296 52.7694 16.6336 53.5718 14.5192C54.0803 13.179 54.1997 12.3828 54.1792 10.4698C54.1376 6.596 52.6713 3.74351 49.9895 2.31918C48.4967 1.52634 45.4005 1.52995 43.886 2.32628C42.6718 2.96477 41.3487 4.28786 40.7663 5.44607C39.6033 7.75886 39.4967 12.8475 40.5609 15.2539C42.0818 18.6935 45.693 20.173 49.446 18.8942V18.8942ZM7.24122 20.2525C6.44085 20.0323 5.14203 19.408 4.35494 18.8652C2.52376 17.6022 1.53789 15.8773 0.991556 12.9807C0.620758 11.0147 0.62058 10.5886 0.989755 8.5985C1.49504 5.87455 2.34044 4.16168 3.88001 2.74255C5.38308 1.35707 6.21765 0.930719 8.11217 0.580498C10.3736 0.162458 12.3421 0.588698 14.3113 1.92291C16.4539 3.37449 17.8246 6.21133 17.8246 9.19401V10.8667H9.98294H2.1413L2.31597 12.3528C2.57233 14.534 3.42163 16.2701 4.86898 17.5714C6.79296 19.3012 9.14704 19.7696 11.8413 18.9588C13.707 18.3973 14.7844 17.4318 15.7103 15.4919C16.377 14.095 16.6448 13.7771 17.1553 13.7771C17.7504 13.7771 17.7685 13.8271 17.5156 14.7693C16.3728 19.0259 11.7503 21.4929 7.24124 20.2525H7.24122ZM16.3756 8.28698C15.962 5.4945 14.3312 3.16408 12.1564 2.25797C10.6882 1.64624 8.10002 1.71317 6.63738 2.4007C4.38529 3.45931 2.77776 5.71423 2.34678 8.41927L2.16762 9.54375H9.36467H16.5617L16.3756 8.28698ZM111.853 20.2989C108.855 19.5356 106.959 17.7647 106.498 15.2979C106.248 13.9602 106.309 13.7771 106.997 13.7771C107.282 13.7771 107.604 14.1896 107.877 14.9049C108.491 16.5135 109.627 17.7775 111.261 18.6707C113.215 19.7392 115.742 19.7624 117.745 18.7302C119.639 17.7542 120.218 16.9405 120.218 15.2555C120.218 12.8676 119.69 12.472 114.53 10.9962C109.705 9.6164 107.994 8.80322 107.434 7.62407C106.278 5.18773 107.273 2.405 109.69 1.31264C110.881 0.774772 111.506 0.68018 113.868 0.68018C116.306 0.68018 116.807 0.761221 117.956 1.34164C119.769 2.25759 120.789 3.61246 120.953 5.32308C121.078 6.61556 121.055 6.67531 120.481 6.59026C120.007 6.52016 119.809 6.23137 119.559 5.24408C118.951 2.83836 117.253 1.77237 114.001 1.75454C110.25 1.73398 108.142 3.26926 108.404 5.83097C108.581 7.56869 109.49 8.26207 112.571 9.01082C116.909 10.0648 119.257 10.8846 120.043 11.6199C122.078 13.5207 122.26 16.3431 120.479 18.3712C118.969 20.0913 114.745 21.0352 111.853 20.2988V20.2989ZM73.4728 19.9729C68.6696 18.2079 66.6801 10.9155 69.43 5.15354C70.2666 3.40077 71.3944 2.23979 73.196 1.27715C74.1415 0.77189 74.7195 0.68021 76.9589 0.68021C80.0008 0.68021 80.971 1.05039 82.8477 2.92709C84.1392 4.2186 84.8704 5.99623 85.2156 8.68386L85.462 10.6021H77.5362H69.6104L69.7486 12.3233C70.0929 16.6129 72.941 19.338 77.0722 19.3308C79.8568 19.3258 82.3229 17.5864 83.347 14.9049C83.6861 14.017 83.9108 13.7771 84.4032 13.7771C85.1426 13.7771 85.1521 13.8499 84.6175 15.4189C84.0945 16.9536 82.6841 18.6053 81.1075 19.5293C80.0192 20.1671 79.5697 20.2581 77.2271 20.3147C75.3643 20.3598 74.2497 20.2583 73.4728 19.9729V19.9729ZM83.7539 9.4075C84.0183 9.14309 83.4566 6.56014 82.8996 5.4792C81.6087 2.97388 79.7622 1.79882 77.092 1.78345C74.1793 1.76669 71.8389 3.16724 70.6252 5.65329C70.2555 6.4106 69.8761 7.59576 69.782 8.28698L69.611 9.54375H76.6143C80.4661 9.54375 83.6789 9.48244 83.7539 9.4075ZM92.2416 19.8313C89.9604 18.9545 88.2037 16.72 88.2037 14.6953C88.2037 13.8606 88.2774 13.7509 88.7892 13.8248C89.1971 13.8837 89.4245 14.1502 89.5387 14.7031C90.1365 17.5967 92.7124 19.3397 96.3729 19.3275C100.289 19.3145 102.829 16.9402 101.898 14.1616C101.715 13.6141 101.264 12.9428 100.896 12.6698C100.528 12.3968 98.5633 11.6909 96.5303 11.1012C92.2316 9.85419 90.163 8.91621 89.406 7.8707C88.6347 6.80543 88.6419 4.0631 89.4186 3.01472C90.7368 1.23568 92.7829 0.445488 95.9749 0.482666C97.7345 0.503156 98.3091 0.631787 99.6791 1.31185C101.647 2.28889 102.517 3.44968 102.699 5.34156C102.823 6.62753 102.803 6.67607 102.2 6.59029C101.701 6.51935 101.539 6.29402 101.409 5.49172C101.195 4.16614 100.457 3.20782 99.0447 2.41893C98.1166 1.90071 97.5068 1.77442 95.8931 1.76614C91.4827 1.74351 88.8913 4.32351 90.5659 7.06986C91.1708 8.06183 92.4093 8.56967 97.257 9.81337C101.004 10.7747 101.99 11.2586 102.751 12.5093C104.526 15.4293 102.982 18.9537 99.4666 20.0024C97.5508 20.574 93.952 20.4887 92.2416 19.8313H92.2416ZM19.0682 19.7805C19.1845 19.5899 20.8573 17.3443 22.7855 14.7902C24.7136 12.2361 26.2912 10.0887 26.2912 10.0182C26.2912 9.94762 24.7473 7.87727 22.8602 5.41736C19.4276 0.942764 19.2359 0.511682 20.859 0.919077C21.2518 1.01766 22.4954 2.44516 24.3369 4.91126C25.9134 7.02256 27.2691 8.74999 27.3496 8.74999C27.43 8.74999 28.7766 7.0348 30.3419 4.93845C31.9073 2.8421 33.3724 1.05616 33.5977 0.969696C34.1234 0.76798 35.0225 0.766235 35.0225 0.966896C35.0225 1.05184 33.525 3.08504 31.6947 5.48512C29.7753 8.002 28.4268 10.0051 28.5085 10.218C28.5864 10.421 30.265 12.7336 32.2387 15.3571C35.4375 19.6089 35.7572 20.127 35.1819 20.127C34.827 20.127 34.3449 20.0535 34.1107 19.9636C33.8765 19.8737 32.309 17.9101 30.6275 15.6C28.9459 13.2899 27.4827 11.3458 27.3758 11.2797C27.2689 11.2137 25.8296 13.0063 24.1772 15.2633C22.5249 17.5204 20.9289 19.5381 20.6306 19.7471C19.9262 20.2404 18.7723 20.2651 19.0682 19.7805V19.7805ZM59.0996 10.4698V0.81249H59.761C60.403 0.81249 60.4225 0.86655 60.4225 2.6474V4.4823L61.7552 3.18415C62.7837 2.1824 63.4848 1.76345 64.8258 1.34925C67.2176 0.610487 67.8308 0.63593 67.8308 1.47395C67.8308 2.02323 67.7042 2.13541 67.0842 2.13541C65.627 2.13541 63.7762 2.98984 62.5265 4.23948C60.5962 6.16981 60.4225 6.98306 60.4225 14.0888V20.1271H59.761H59.0996V10.4698Z" fill="black"/>
</svg>
