<svg width="220" height="220" viewBox="0 0 87 144" fill="none" xmlns="http://www.w3.org/2000/svg">
<path d="M22.3909 110.467C34.214 110.467 43.8095 102.283 43.8095 92.1984V73.9296H22.3909C10.5678 73.9296 0.972229 82.114 0.972229 92.1984C0.972229 102.283 10.5678 110.467 22.3909 110.467Z" fill="#0ACF83"/>
<path d="M0.972229 55.6607C0.972229 45.5763 10.5678 37.3919 22.3909 37.3919H43.8095V73.9296H22.3909C10.5678 73.9296 0.972229 65.7451 0.972229 55.6607Z" fill="#A259FF"/>
<path d="M0.972229 19.123C0.972229 9.0386 10.5678 0.854156 22.3909 0.854156H43.8095V37.3919H22.3909C10.5678 37.3919 0.972229 29.2074 0.972229 19.123Z" fill="#F24E1E"/>
<path d="M43.8095 0.854156H65.2282C77.0513 0.854156 86.6468 9.0386 86.6468 19.123C86.6468 29.2074 77.0513 37.3919 65.2282 37.3919H43.8095V0.854156Z" fill="#FF7262"/>
<path d="M86.6468 55.6607C86.6468 65.7451 77.0513 73.9296 65.2282 73.9296C53.4051 73.9296 43.8095 65.7451 43.8095 55.6607C43.8095 45.5763 53.4051 37.3919 65.2282 37.3919C77.0513 37.3919 86.6468 45.5763 86.6468 55.6607Z" fill="#1ABCFE"/>
<path d="M28.888 143.16C27.6048 142.696 27.5691 142.606 28.2718 141.599C28.9193 140.672 29.3344 140.56 31.4173 140.748C34.5842 141.033 36.4292 139.677 36.8467 136.756C37.15 134.635 36.8335 134.378 35.2794 135.482C34.0517 136.353 30.8618 136.37 29.099 135.515C27.1492 134.569 26.1664 133.38 25.5567 131.23C24.0702 125.989 29.2834 121.536 34.8164 123.321C36.1114 123.738 36.8205 123.778 37.0403 123.444C37.2178 123.175 37.9001 123.025 38.5565 123.112L39.75 123.271V131.095C39.75 139.634 39.589 140.175 36.3814 142.422C34.8592 143.488 30.8808 143.88 28.888 143.16V143.16ZM35.5385 132.454C37.4017 130.706 37.4589 128.78 35.7055 126.825C34.7451 125.754 33.9884 125.382 32.773 125.382C29.5675 125.382 27.1665 128.614 28.5252 131.1C30.1348 134.046 33.2092 134.639 35.5384 132.454H35.5385ZM1 126.82V116H7.25001H13.5V117.407V118.814H8.47506H3.4501L3.60005 121.512L3.75001 124.209L7.37501 124.347L11 124.484V125.85V127.217L7.37501 127.354L3.75001 127.492L3.67844 132.417L3.60687 137.343L2.30345 137.491L1.00003 137.64L1 126.82ZM17.5 130.307V123.036H19H20.5V130.307V137.578H19H17.5V130.307ZM45 130.522V123.467L46.875 123.489C47.9062 123.501 49.5931 123.381 50.6236 123.222C52.8402 122.881 54.6406 123.235 55.6883 124.218C56.3658 124.854 56.622 124.829 58.0982 123.985C59.8803 122.965 62.9778 122.741 64.5277 123.519C66.4416 124.48 67 126.432 67 132.16V137.578H65.5H64V131.975C64 126.718 63.9316 126.328 62.8887 125.643C61.373 124.647 59.6987 124.726 58.5 125.851C57.6159 126.68 57.5 127.414 57.5 132.183V137.578H56H54.5V132.418C54.5 127.883 54.3789 127.144 53.5 126.32C52.3012 125.195 50.627 125.116 49.1113 126.112C48.073 126.794 48 127.195 48 132.21V137.578H46.5H45V130.522ZM74.5047 136.707C72.5188 135.708 70.5 132.519 70.5 130.381C70.5 128.259 72.3542 125.074 74.2195 123.992C76.2223 122.831 80.8053 122.679 82.2794 123.725C83.5285 124.611 84 124.615 84 123.739C84 123.27 84.5 123.035 85.5 123.035H87V130.072V137.108H85.5417C84.7396 137.108 83.9984 136.869 83.8946 136.577C83.7642 136.209 83.219 136.282 82.1278 136.811C80.032 137.828 76.641 137.781 74.5047 136.707V136.707ZM82.875 133.573C84.9115 131.387 84.0095 127.116 81.264 125.942C78.8983 124.931 77.0432 125.247 75.2 126.976C73.1943 128.858 72.962 130.881 74.4828 133.221C76.2234 135.899 80.5384 136.08 82.875 133.573V133.573ZM17.7412 119.912C16.8439 119.07 16.7961 118.255 17.6 117.501C18.9981 116.189 21.3655 117.464 20.7748 119.21C20.3719 120.401 18.6798 120.792 17.7412 119.912H17.7412Z" fill="black"/>
</svg>
