<svg width="128" height="128" viewBox="0 0 128 128" fill="none" xmlns="http://www.w3.org/2000/svg">
<path d="M107.4 59.9C107.4 70.7 87.2 79.5 62.2 79.5C37.2 79.5 17 70.7 17 59.9C17 49.1 37.2 40.3 62.2 40.3C87.2 40.3 107.4 49.1 107.4 59.9Z" fill="url(#paint0_radial)"/>
<path d="M30.7 11.7C30.7 11.7 37.8 26.4 54.5 26C89.4 25.1 95.5 6.9 96.4 4.3C97.3 1.7 98.6 2.1 98.9 4.5C110.3 107.7 20 63.4 16.8 45.9C34.7 40.7 30.4 30.6 30.4 30.6L30.7 11.7Z" fill="#333333" stroke="#2E3436" stroke-miterlimit="10"/>
<path d="M43.9 55.3C60.6 58.6 69.1 55.5 74 51.7C72.7 50 70.4 48.1 70.4 48.1C70.4 48.1 76.2 49.7 78.3 52.4C80.3 55 79.1 56.7 78.5 60C77.3 57 75.1 55.9 74.8 54.7C70.4 61 59.3 60.7 43.9 55.3Z" fill="url(#paint1_linear)"/>
<path opacity="0.185" d="M96.5 10.2C95.1 12.5 93 15.2 89.9 17.9C83.4 23.3 72.5 28.2 54.6 28.6C44.1 28.9 37.4 23.8 33.3 19.3L33 30.4C33.3 31.4 34 33.8 32.8 37.1C31.5 40.6 27.5 44.3 20.5 47C21.1 48.3 21.7 49.6 23.6 51.4C26.1 53.9 29.7 56.6 33.9 59C42.3 63.8 53.2 67.6 63.4 67.8C73.6 68 82.8 64.7 89.2 55.4C94.9 46.8 98.2 32.3 96.5 10.2Z" stroke="url(#paint2_linear)" stroke-miterlimit="10"/>
<path d="M48.8 33.8C48.8 39.4 44.3 43.9 38.7 43.9C33.1 43.9 28.6 39.4 28.6 33.8C28.6 28.2 33.1 23.7 38.7 23.7C44.3 23.7 48.8 28.3 48.8 33.8Z" fill="url(#paint3_radial)" stroke="#888A85" stroke-width="0.783" stroke-miterlimit="10"/>
<path d="M28.8 37.6C33.7 44.4 33.7 52.6 28.9 56.1C24.1 59.6 16.3 56.9 11.4 50.1C6.5 43.3 6.5 35.1 11.3 31.6C16.1 28.2 23.9 30.9 28.8 37.6Z" fill="url(#paint4_radial)" stroke="black" stroke-miterlimit="10"/>
<path d="M46 35.3C46 38 43.8 40.1 41.2 40.1C38.5 40.1 36.4 37.9 36.4 35.3C36.4 32.7 38.6 30.5 41.2 30.5C43.8 30.5 46 32.6 46 35.3Z" fill="#2E3436" stroke="black" stroke-width="1.174" stroke-miterlimit="10"/>
<path opacity="0.281" d="M12.1 33.9C10.6 35 9.7 37 9.8 39.8C9.9 42.5 10.9 45.8 13.2 48.8C15.4 51.7 18.3 53.7 20.9 54.5C23.5 55.3 25.6 55.1 27.2 53.9C28.8 52.7 29.6 50.6 29.6 47.9C29.6 45.2 28.5 41.9 26.3 39C24.1 36.1 21.3 34.1 18.7 33.3C16 32.5 13.7 32.7 12.1 33.9Z" stroke="url(#paint5_linear)" stroke-miterlimit="10"/>
<path d="M19.4 38.4C19.4 41.3 17.4 43.6 15 43.6C12.6 43.6 10.6 41.3 10.6 38.4C10.6 35.5 12.6 33.2 15 33.2C17.5 33.2 19.4 35.5 19.4 38.4Z" fill="white"/>
<path d="M42.6 33.1C42.6 35 41.1 36.5 39.2 36.5C37.3 36.5 35.8 35 35.8 33.1C35.8 31.2 37.3 29.7 39.2 29.7C41.1 29.7 42.6 31.2 42.6 33.1Z" fill="white"/>
<path d="M71.4 34.9C71.4 41.4 66.1 46.7 59.6 46.7C53.1 46.7 47.8 41.4 47.8 34.9C47.8 28.4 53 23.1 59.5 23.1C66 23.1 71.4 28.4 71.4 34.9Z" fill="url(#paint6_radial)" stroke="#888A85" stroke-width="0.667" stroke-miterlimit="10"/>
<path d="M68 36.7C68 39.8 65.5 42.4 62.3 42.4C59.2 42.4 56.6 39.9 56.6 36.7C56.6 33.5 59.1 31 62.3 31C65.4 31 68 33.5 68 36.7Z" fill="#2E3436" stroke="black" stroke-miterlimit="10"/>
<path d="M64.1 34C64.1 36.2 62.3 37.9 60.2 37.9C58.1 37.9 56.3 36.1 56.3 34C56.3 31.8 58.1 30.1 60.2 30.1C62.3 30.1 64.1 31.9 64.1 34Z" fill="white"/>
<path d="M95.577 70.176L97.873 65.599C89.3305 59.343 73.6255 54.8175 73.6255 54.8175C70.917 53.539 70.033 56.004 71.9455 57.602C71.9065 57.6135 85.348 67.2575 95.577 70.176Z" fill="url(#paint7_linear)" stroke="black" stroke-width="1.00065" stroke-linecap="round"/>
<path d="M106.532 74.4065L107.76 71.6705L98.247 65.5735L97.5035 65.496L97.193 64.443C95.7985 65.3205 93.8205 68.532 94.3495 70.326L95.3795 69.9375L95.926 70.497L106.532 74.4065Z" fill="url(#paint8_linear)" stroke="#888A85" stroke-width="1.00065" stroke-linecap="round"/>
<path d="M100.344 69.2365L106.656 71.9535" stroke="white" stroke-width="1.00065" stroke-linecap="round" stroke-linejoin="round"/>
<path d="M120.358 85.9295C117.391 75.8675 116.334 67.828 108.577 68.547C102.304 69.125 101.888 78.065 108.349 80.5685C114.569 82.9735 120.358 85.9295 120.358 85.9295Z" fill="url(#paint9_radial)"/>
<path opacity="0.528" d="M109.036 69.3865C110.401 68.984 111.866 69.7815 112.268 71.1465C112.671 72.5115 111.873 73.976 110.508 74.3785C109.143 74.781 107.679 73.9835 107.276 72.6185C106.874 71.2535 107.671 69.789 109.036 69.3865Z" fill="white"/>
<path d="M97.6895 65.6955C98.6255 65.4195 99.585 65.942 99.861 66.878C100.137 67.814 99.6145 68.7735 98.6785 69.0495C97.7425 69.3255 96.783 68.803 96.507 67.867C96.231 66.931 96.7535 65.9715 97.6895 65.6955Z" fill="white"/>
<path opacity="0.428" d="M116.632 79.9065C116.632 79.9065 115.652 76.2955 113.53 74.42C112.782 73.7505 113.717 72.754 114.445 73.6415C115.963 75.483 116.632 79.9065 116.632 79.9065Z" fill="url(#paint10_linear)"/>
<path d="M61.9 59.4C65.6 59.8 69 58.7 70.3 58.2C70.5 56.8 71.6 54.2 75.4 54L74.1 51.7C74.1 51.7 69.2 55 64 56L61.9 59.4Z" fill="url(#paint11_linear)"/>
<path d="M32.3 85.1L27.5 112.9L36.5 112.7L35.8 115.2L26.8 115.6L25.9 121.8L41.6 121.3L47.8 85L32.3 85.1ZM37.6 106.1L34.5 106.2L37 91.9L40 91.8L37.6 106.1ZM49.4 91.2L55.6 91.1L50.9 118H45L49.4 91.2ZM53.8 117.4L59.6 85L84 85.3L78.4 117.4L72.2 117.5L76.7 92.2L73.9 92.3L69.3 118H63L67.5 92.1L64.7 91.9L60.3 117.5L53.8 117.4ZM87.2 85.5L80.7 122H86.9L87.6 117.9L96.8 117.7L102.7 85.7L87.2 85.5ZM91.7 111.5L88.7 111.6L92.3 91.9L95.1 91.8L91.7 111.5ZM51 82H57L56.3 88H50L51 82Z" fill="#1A1A1A"/>
<defs>
<radialGradient id="paint0_radial" cx="0" cy="0" r="1" gradientUnits="userSpaceOnUse" gradientTransform="translate(62.221 59.9331) scale(45.158 19.6437)">
<stop/>
<stop offset="1" stop-opacity="0"/>
</radialGradient>
<linearGradient id="paint1_linear" x1="76.062" y1="53.791" x2="48.504" y2="59.259" gradientUnits="userSpaceOnUse">
<stop/>
<stop offset="1" stop-opacity="0"/>
</linearGradient>
<linearGradient id="paint2_linear" x1="51.959" y1="21.103" x2="110.47" y2="87.522" gradientUnits="userSpaceOnUse">
<stop stop-color="white"/>
<stop offset="1" stop-color="white" stop-opacity="0"/>
</linearGradient>
<radialGradient id="paint3_radial" cx="0" cy="0" r="1" gradientUnits="userSpaceOnUse" gradientTransform="translate(38.8321 26.7429) scale(14.6561)">
<stop stop-color="white"/>
<stop offset="1" stop-color="#B9B9B0"/>
</radialGradient>
<radialGradient id="paint4_radial" cx="0" cy="0" r="1" gradientUnits="userSpaceOnUse" gradientTransform="translate(15.8921 38.7522) rotate(-29.992) scale(11.0003 12.8478)">
<stop stop-color="#5B676B"/>
<stop offset="1" stop-color="#141718"/>
</radialGradient>
<linearGradient id="paint5_linear" x1="14.5926" y1="36.2578" x2="25.5238" y2="52.0844" gradientUnits="userSpaceOnUse">
<stop stop-color="white"/>
<stop offset="1" stop-color="white" stop-opacity="0"/>
</linearGradient>
<radialGradient id="paint6_radial" cx="0" cy="0" r="1" gradientUnits="userSpaceOnUse" gradientTransform="translate(59.6031 26.6024) scale(17.2046)">
<stop stop-color="white"/>
<stop offset="1" stop-color="#B9B9B0"/>
</radialGradient>
<linearGradient id="paint7_linear" x1="85.577" y1="58.2636" x2="81.7872" y2="61.5597" gradientUnits="userSpaceOnUse">
<stop stop-color="#10100F"/>
<stop offset="0.242" stop-color="#F4EDE6"/>
<stop offset="0.621" stop-color="#433B32"/>
<stop offset="1" stop-color="#DDD6CE"/>
</linearGradient>
<linearGradient id="paint8_linear" x1="100.237" y1="72.0956" x2="101.756" y2="70.6894" gradientUnits="userSpaceOnUse">
<stop stop-color="#BDBDBD"/>
<stop offset="0.333" stop-color="#E2E2E2"/>
<stop offset="0.667" stop-color="#A3A3A3"/>
<stop offset="1" stop-color="#DDDDDD"/>
</linearGradient>
<radialGradient id="paint9_radial" cx="0" cy="0" r="1" gradientUnits="userSpaceOnUse" gradientTransform="translate(107.008 75.1156) rotate(0.410477) scale(4.76429 4.86273)">
<stop stop-color="#696969"/>
<stop offset="1"/>
</radialGradient>
<linearGradient id="paint10_linear" x1="113.421" y1="73.1217" x2="112.46" y2="70.8357" gradientUnits="userSpaceOnUse">
<stop stop-color="white"/>
<stop offset="1" stop-color="white" stop-opacity="0"/>
</linearGradient>
<linearGradient id="paint11_linear" x1="69.557" y1="55.712" x2="65.019" y2="56.805" gradientUnits="userSpaceOnUse">
<stop/>
<stop offset="1" stop-opacity="0"/>
</linearGradient>
</defs>
</svg>
