<svg width="455" height="282" viewBox="0 0 455 282" fill="none" xmlns="http://www.w3.org/2000/svg">
<path d="M225.686 277.337C224.226 277.337 222.773 276.955 221.496 276.216L208.156 268.324C206.165 267.209 207.138 266.815 207.794 266.586C210.452 265.664 210.989 265.451 213.825 263.842C214.12 263.676 214.512 263.739 214.817 263.918L225.065 270.002C225.437 270.208 225.961 270.208 226.303 270.002L266.256 246.941C266.628 246.729 266.866 246.301 266.866 245.86V199.752C266.866 199.301 266.627 198.88 266.246 198.651L226.31 175.61C225.942 175.394 225.451 175.394 225.079 175.61L185.152 198.657C184.764 198.879 184.518 199.314 184.518 199.752V245.86C184.518 246.301 184.763 246.719 185.148 246.928L196.093 253.252C202.031 256.221 205.667 252.724 205.667 249.211V203.687C205.667 203.044 206.185 202.536 206.828 202.536H211.894C212.528 202.536 213.052 203.044 213.052 203.687V249.21C213.052 257.136 208.736 261.681 201.222 261.681C198.913 261.681 197.095 261.681 192.019 259.18L181.542 253.149C178.954 251.653 177.352 248.856 177.352 245.86V199.752C177.352 196.756 178.954 193.959 181.542 192.47L221.495 169.383C224.023 167.953 227.384 167.953 229.892 169.383L269.842 192.47C272.43 193.966 274.039 196.756 274.039 199.752V245.86C274.039 248.856 272.43 251.642 269.842 253.149L229.892 276.216C228.615 276.955 227.166 277.337 225.686 277.337Z" fill="#333333"/>
<path d="M238.027 245.571C220.544 245.571 216.881 237.546 216.881 230.815C216.881 230.175 217.395 229.664 218.036 229.664H223.201C223.778 229.664 224.259 230.079 224.349 230.643C225.129 235.901 227.454 238.555 238.027 238.555C246.444 238.555 250.027 236.651 250.027 232.185C250.027 229.611 249.012 227.7 235.931 226.419C225 225.338 218.238 222.922 218.238 214.177C218.238 206.115 225.032 201.308 236.425 201.308C249.224 201.308 255.557 205.75 256.36 215.282C256.39 215.61 256.274 215.926 256.055 216.171C255.836 216.4 255.531 216.539 255.209 216.539H250.024C249.487 216.539 249.012 216.157 248.903 215.637C247.659 210.103 244.633 208.335 236.426 208.335C227.236 208.335 226.168 211.537 226.168 213.935C226.168 216.841 227.429 217.687 239.837 219.329C252.115 220.951 257.947 223.25 257.947 231.88C257.946 240.585 250.687 245.571 238.027 245.571Z" fill="#333333"/>
<path d="M295.638 197.216C295.638 201.453 292.174 204.916 287.938 204.916C283.741 204.916 280.238 201.494 280.238 197.216C280.238 192.857 283.824 189.514 287.938 189.514C292.095 189.514 295.638 192.856 295.638 197.216ZM281.482 197.194C281.482 200.78 284.375 203.673 287.918 203.673C291.504 203.673 294.397 200.719 294.397 197.194C294.397 193.609 291.465 190.758 287.918 190.758C284.415 190.758 281.482 193.568 281.482 197.194ZM285.045 192.896H288.021C289.039 192.896 291.037 192.896 291.037 195.179C291.037 196.768 290.019 197.093 289.405 197.297C290.589 197.379 290.669 198.153 290.831 199.253C290.914 199.945 291.037 201.128 291.279 201.534H289.448C289.405 201.128 289.12 198.926 289.12 198.805C289.001 198.315 288.835 198.072 288.224 198.072H286.718V201.534H285.046V192.896H285.045V192.896ZM286.677 196.685H288.021C289.119 196.685 289.325 195.912 289.325 195.464C289.325 194.281 288.509 194.281 288.061 194.281H286.678L286.677 196.685Z" fill="#333333"/>
<path d="M101.964 96.943C101.964 95.102 100.995 93.41 99.406 92.497L57.047 68.119C56.331 67.698 55.527 67.479 54.715 67.445C54.642 67.445 54.337 67.445 54.277 67.445C53.467 67.478 52.665 67.697 51.938 68.119L9.57901 92.497C8.00001 93.409 7.01801 95.101 7.01801 96.943L7.11101 162.584C7.11101 163.496 7.585 164.346 8.388 164.794C9.174 165.265 10.146 165.265 10.929 164.794L36.103 150.379C37.695 149.434 38.664 147.765 38.664 145.94V115.272C38.664 113.444 39.633 111.752 41.218 110.843L51.937 104.669C52.736 104.208 53.609 103.982 54.502 103.982C55.374 103.982 56.27 104.208 57.046 104.669L67.762 110.843C69.348 111.752 70.32 113.444 70.32 115.272V145.94C70.32 147.765 71.302 149.444 72.885 150.379L98.052 164.794C98.842 165.265 99.827 165.265 100.61 164.794C101.39 164.346 101.881 163.497 101.881 162.584L101.964 96.943Z" fill="#333333"/>
<path d="M305.781 6.708C304.988 6.267 304.021 6.277 303.238 6.736C302.457 7.196 301.976 8.035 301.976 8.942V73.948C301.976 74.587 301.634 75.179 301.082 75.499C300.528 75.819 299.844 75.819 299.29 75.499L288.681 69.386C287.098 68.474 285.151 68.476 283.569 69.388L241.193 93.843C239.609 94.757 238.634 96.446 238.634 98.274V147.195C238.634 149.023 239.609 150.712 241.192 151.627L283.566 176.101C285.15 177.015 287.101 177.015 288.685 176.101L331.065 151.627C332.648 150.711 333.623 149.023 333.623 147.195V25.248C333.623 23.393 332.619 21.683 330.999 20.779L305.781 6.708ZM301.849 131.122C301.849 131.578 301.605 132.001 301.209 132.228L286.66 140.615C286.265 140.842 285.778 140.842 285.383 140.615L270.833 132.228C270.437 132.001 270.193 131.578 270.193 131.122V114.322C270.193 113.866 270.437 113.443 270.832 113.214L285.381 104.811C285.777 104.582 286.265 104.582 286.661 104.811L301.21 113.214C301.605 113.443 301.849 113.866 301.849 114.322V131.122Z" fill="#333333"/>
<path d="M446.884 113.882C448.46 112.966 449.43 111.281 449.43 109.458V97.603C449.43 95.78 448.46 94.093 446.882 93.177L404.779 68.731C403.195 67.81 401.239 67.809 399.652 68.724L357.292 93.179C355.709 94.093 354.734 95.782 354.734 97.61V146.518C354.734 148.358 355.721 150.054 357.319 150.964L399.416 174.952C400.969 175.838 402.871 175.848 404.434 174.98L429.896 160.827C430.704 160.378 431.207 159.53 431.211 158.608C431.218 157.686 430.727 156.832 429.927 156.372L387.298 131.905C386.502 131.449 386.013 130.601 386.013 129.685V114.358C386.013 113.444 386.501 112.598 387.293 112.142L400.56 104.493C401.35 104.037 402.325 104.037 403.114 104.493L416.388 112.142C417.181 112.598 417.668 113.444 417.668 114.358V126.417C417.668 127.333 418.158 128.179 418.95 128.635C419.743 129.093 420.72 129.089 421.511 128.63L446.884 113.882Z" fill="#333333"/>
<path d="M401.591 111.591C401.895 111.415 402.269 111.415 402.573 111.591L410.704 116.282C411.008 116.458 411.195 116.781 411.195 117.133V126.522C411.195 126.874 411.008 127.197 410.704 127.373L402.573 132.064C402.269 132.24 401.895 132.24 401.591 132.064L393.466 127.373C393.162 127.197 392.975 126.874 392.975 126.522V117.133C392.975 116.781 393.162 116.458 393.466 116.282L401.591 111.591Z" fill="#B4B4B4"/>
<path d="M167.756 68.979C169.326 68.072 171.261 68.072 172.831 68.979L214.861 93.234C216.433 94.141 217.4 95.816 217.4 97.631V146.177C217.4 147.99 216.433 149.666 214.862 150.574L172.832 174.848C171.261 175.755 169.325 175.755 167.754 174.848L125.733 150.574C124.163 149.666 123.196 147.991 123.196 146.177V97.629C123.196 95.816 124.164 94.14 125.735 93.234L167.756 68.979Z" fill="url(#paint0_linear)"/>
<path opacity="0.66" d="M214.649 93.233L172.806 68.978C172.387 68.736 171.939 68.564 171.479 68.451L124.182 149.358C124.58 149.838 125.06 150.254 125.61 150.572L167.704 174.846C168.959 175.57 170.411 175.706 171.746 175.274L215.934 94.36C215.588 93.919 215.165 93.531 214.649 93.233Z" fill="#B4B4B4"/>
<path d="M172.732 174.847L214.662 150.573C216.232 149.665 216.999 147.99 216.999 146.176V145.986L171.639 68.493C170.332 68.127 168.906 68.286 167.706 68.979L126.113 92.959L171.359 175.387C171.832 175.274 172.295 175.1 172.732 174.847Z" fill="url(#paint1_linear)"/>
<defs>
<linearGradient id="paint0_linear" x1="123.196" y1="121.913" x2="217.4" y2="121.913" gradientUnits="userSpaceOnUse">
<stop offset="0.0053"/>
<stop offset="0.1938" stop-color="#171717"/>
<stop offset="0.5423" stop-color="#3D3D3D"/>
<stop offset="0.8235" stop-color="#545454"/>
<stop offset="1" stop-color="#5C5C5C"/>
</linearGradient>
<linearGradient id="paint1_linear" x1="122.545" y1="121.844" x2="219.723" y2="121.844" gradientUnits="userSpaceOnUse">
<stop stop-color="#5C5C5C"/>
<stop offset="0.1765" stop-color="#545454"/>
<stop offset="0.4577" stop-color="#3D3D3D"/>
<stop offset="0.8062" stop-color="#171717"/>
<stop offset="0.9947"/>
</linearGradient>
</defs>
</svg>
