<svg width="170" height="195" viewBox="0 0 170 195" fill="none" xmlns="http://www.w3.org/2000/svg">
<path d="M64.9135 194.691C63.3175 194.378 60.69 193.111 59.5373 192.099C57.1568 190.008 56.0338 187.012 56.2007 183.196C56.2958 181.021 56.4168 180.53 57.2948 178.753C58.8943 175.517 61.5386 173.621 65.3243 172.995C72.3488 171.835 78.4529 177.06 78.0628 183.898L77.9817 185.32L69.8359 185.39C60.8962 185.467 61.0457 185.437 61.709 187.038C62.1575 188.121 64.059 189.81 65.3039 190.231C65.8738 190.424 67.1909 190.585 68.2309 190.589C69.9142 190.596 70.3457 190.483 72.1619 189.562L74.202 188.526L75.3541 189.833C75.9877 190.553 76.5107 191.267 76.5163 191.422C76.5482 192.305 73.3908 194.178 71.0233 194.68C69.4192 195.02 66.6154 195.025 64.9135 194.691ZM72.6684 182.117C73.3016 181.874 73.1727 180.929 72.3236 179.59C70.4684 176.665 65.6445 176.116 62.9338 178.522C62.1173 179.246 61.1518 181.527 61.4893 181.934C61.7057 182.194 63.0395 182.277 67.0122 182.277C69.8929 182.277 72.4382 182.205 72.6684 182.117ZM85.9192 194.607C82.1121 193.403 80.2126 190.452 81.0273 187.008C81.2871 185.909 81.6417 185.305 82.5832 184.357C84.3224 182.606 85.6736 182.241 91.0124 182.08L95.3119 181.951V181.158C95.3119 180.103 94.3833 178.499 93.4551 177.951C91.1035 176.562 87.5432 176.956 83.6274 179.038C83.3618 179.179 81.5832 175.893 81.7251 175.524C81.9234 175.007 84.1957 173.889 85.9192 173.46C92.6181 171.794 98.171 173.592 99.8036 177.956C100.296 179.272 100.339 180.005 100.339 187.06V194.733L98.0238 194.657L95.7087 194.581L95.6258 193.721C95.5802 193.248 95.4951 192.861 95.4366 192.861C95.3781 192.861 94.7786 193.211 94.1044 193.638C92.0672 194.93 88.3366 195.372 85.9192 194.607ZM92.0594 190.875C92.9981 190.596 93.6918 190.154 94.3697 189.404C95.2588 188.42 95.3319 188.219 95.259 186.958L95.1796 185.585L92.5338 185.503C88.9621 185.393 87.7816 185.597 86.7755 186.496C86.1348 187.068 85.9457 187.456 85.9457 188.195C85.9457 190.677 88.6843 191.877 92.0595 190.875H92.0594ZM113.638 194.586C110.241 193.63 107.847 191.689 106.371 188.691C105.542 187.009 105.499 186.773 105.504 184.003C105.509 181.581 105.613 180.828 106.122 179.556C106.901 177.607 109.099 175.209 110.975 174.26C114.904 172.272 120.1 172.414 123.401 174.601C124.744 175.49 126.143 177.3 125.925 177.866C125.77 178.272 123.03 179.896 122.501 179.896C122.316 179.896 121.811 179.521 121.379 179.063C119.145 176.696 115.089 176.611 112.628 178.879C111.152 180.239 110.516 181.862 110.556 184.161C110.623 187.989 113.231 190.533 117.07 190.514C118.9 190.505 120.627 189.781 121.615 188.607C121.972 188.182 122.383 187.834 122.528 187.834C123.098 187.834 126.004 189.772 126.004 190.152C126.004 191.056 124.127 192.844 122.157 193.817C120.362 194.705 119.948 194.802 117.603 194.884C115.878 194.945 114.564 194.847 113.638 194.586ZM135.845 194.475C134.15 193.89 133.005 192.869 132.253 191.273C131.744 190.194 131.68 189.49 131.56 183.733L131.427 177.383L129.774 177.304L128.12 177.225V175.266V173.307L129.774 173.228L131.427 173.149L131.56 170.768L131.692 168.387H134.073H136.455L136.533 170.491C136.576 171.648 136.739 172.749 136.896 172.938C137.094 173.177 137.975 173.281 139.794 173.281H142.408V175.266V177.25H139.815C138.151 177.25 137.108 177.364 136.904 177.568C136.501 177.971 136.466 187.254 136.862 188.681C137.279 190.183 138.273 190.829 139.894 190.651C140.622 190.571 141.526 190.43 141.905 190.337C142.541 190.181 142.638 190.281 143.205 191.68C143.951 193.516 143.795 193.875 141.988 194.503C140.277 195.097 137.61 195.085 135.845 194.475ZM28.9015 180.567V166.402L35.8468 166.406C41.0447 166.409 43.2102 166.509 44.4541 166.802C49.4295 167.975 52.2089 171.129 52.4093 175.83C52.5748 179.711 51.272 182.523 48.4743 184.322C47.6208 184.871 46.9159 185.451 46.9078 185.611C46.8997 185.771 48.2041 187.774 49.8065 190.063C51.4088 192.352 52.6519 194.335 52.569 194.469C52.391 194.757 47.6833 194.794 47.2732 194.51C47.1184 194.403 45.7691 192.56 44.2746 190.413L41.5574 186.511H37.8822H34.2069L34.1339 190.546L34.0608 194.581L31.4811 194.656L28.9014 194.732L28.9015 180.567ZM43.3394 181.623C44.8964 181.157 45.9819 180.211 46.653 178.733C47.8829 176.025 46.8202 173.043 44.115 171.612C43.1917 171.123 42.504 171.038 38.7239 170.948C35.28 170.866 34.3445 170.918 34.1639 171.203C33.9077 171.607 33.8405 180.946 34.0891 181.594C34.2255 181.95 34.8369 182.013 38.1422 182.013C40.8052 182.013 42.4467 181.89 43.3394 181.623ZM46.7608 150.618C40.5295 149.289 36.1557 144.353 34.2364 136.487C33.3014 132.654 33.0487 130.188 33.0588 124.995C33.0698 119.382 33.5048 115.294 34.7562 109.045C35.2016 106.821 35.5078 104.85 35.4366 104.665C35.3655 104.479 34.5506 104.118 33.6257 103.861C30.575 103.015 24.3333 100.488 20.4315 98.5192C3.90444 90.1787 -2.88922 79.5146 1.81862 69.3024C5.51493 61.2844 16.2908 53.8874 31.6919 48.7963C33.7224 48.1251 35.4721 47.488 35.5801 47.3806C35.6881 47.2732 35.4801 45.8697 35.1178 44.2618C33.741 38.1498 33.3542 34.8444 33.2177 28.0253C33.0744 20.8634 33.3324 18.2039 34.5895 13.8864C36.0851 8.74935 39.1627 4.38145 42.5745 2.55334C46.7469 0.31773 52.7503 0.210494 58.9984 2.25996C61.7038 3.14737 67.3123 5.85899 70.4067 7.77567C73.6072 9.758 78.4123 13.3617 81.389 16.012C82.6809 17.1623 84.0185 18.3203 84.3614 18.5855L84.9849 19.0676L87.8333 16.5465C97.3843 8.09284 106.142 2.98489 114.23 1.15047C115.584 0.843323 117.395 0.670887 119.257 0.671787C124.078 0.674087 126.824 1.77657 129.975 4.97421C132.217 7.24908 133.481 9.41828 134.707 13.0932C136.163 17.4574 136.445 19.7552 136.441 27.2315C136.438 34.4057 136.184 36.9964 134.839 43.5868C134.473 45.3789 134.21 47.0303 134.256 47.2564C134.31 47.5293 135.718 48.1318 138.439 49.0469C152.419 53.7484 162.63 60.3865 167.017 67.6245C169.843 72.2881 170.122 77.6582 167.78 82.331C165.477 86.9268 160.896 91.4603 154.559 95.4157C150.512 97.9418 143.478 101.133 137.777 103.029C136.177 103.561 134.774 104.088 134.66 104.199C134.547 104.31 134.809 106.177 135.243 108.348C137.369 118.974 137.419 129.831 135.375 136.979C133.63 143.084 130.251 147.713 126.136 149.636C121.368 151.864 114.614 151.407 107.49 148.375C101.312 145.746 94.1159 140.905 87.8581 135.168C86.5963 134.011 85.4056 133.069 85.2123 133.075C85.019 133.081 84.2655 133.623 83.5379 134.281C69.8782 146.63 56.3125 152.656 46.7608 150.618ZM123.024 142.95C128.234 140.467 130.76 129.564 129.176 116.396C128.772 113.039 127.579 106.956 127.232 106.482C126.958 106.106 126.618 106.128 123.754 106.708C119.218 107.626 114.282 108.392 109.031 108.992C106.522 109.279 104.39 109.604 104.292 109.714C104.194 109.824 103.003 111.455 101.646 113.338C98.7436 117.365 95.8121 121.086 92.7213 124.665C91.4224 126.169 90.5521 127.399 90.6344 127.613C90.8562 128.191 95.6485 132.361 98.8682 134.777C108.89 142.297 117.956 145.364 123.024 142.95ZM55.0809 143.091C61.8988 141.367 69.4766 136.904 77.34 129.98C78.6361 128.839 79.696 127.727 79.6953 127.509C79.6945 127.29 78.847 126.159 77.8116 124.995C75.0393 121.878 71.5154 117.54 68.3965 113.404C66.881 111.395 65.5007 109.702 65.3291 109.643C65.1575 109.584 63.1716 109.349 60.916 109.122C56.3611 108.663 49.4085 107.631 45.5875 106.846C44.2146 106.564 43.0032 106.425 42.8957 106.536C42.6424 106.798 41.4934 112.302 40.9476 115.867C40.3434 119.813 40.1338 127.031 40.5258 130.39C40.8895 133.508 41.8143 136.956 42.8173 138.935C43.7998 140.874 45.7601 142.735 47.3271 143.216C49.2263 143.8 52.4869 143.747 55.0809 143.091ZM87.8573 119.108C91.357 114.979 94.5529 110.812 94.4521 110.509C94.3963 110.342 91.0671 110.259 85.2471 110.28C80.2325 110.298 75.9808 110.313 75.7989 110.312C75.617 110.311 75.4681 110.409 75.4681 110.529C75.4681 111.136 84.6296 121.952 85.1434 121.952C85.3101 121.952 86.5314 120.672 87.8573 119.108ZM92.3105 102.882C96.351 102.725 99.8625 102.487 100.114 102.352C101.74 101.482 115.42 77.6272 115.42 75.6625C115.42 74.625 108.857 62.658 104.458 55.6742C101.164 50.4446 100.504 49.4844 100.095 49.3225C98.5763 48.7215 81.0278 48.4593 73.7733 48.9291C70.6547 49.1311 69.7234 49.2805 69.3228 49.643C68.6786 50.226 63.74 58.0143 61.0523 62.6857C58.1839 67.6712 54.3015 75.2018 54.3015 75.7802C54.3015 76.4302 58.9531 85.4143 61.8372 90.3346C65.6755 96.8828 69.3621 102.358 70.0489 102.53C70.566 102.66 77.8617 102.987 83.325 103.125C84.2265 103.148 88.27 103.039 92.3105 102.882ZM80.9207 90.3288C77.0143 89.2562 72.9773 85.9778 71.2994 82.5154C68.3701 76.4707 69.4656 69.7269 74.1354 65.0571C78.0012 61.1914 83.2652 59.7427 88.5424 61.0924C91.4081 61.8253 93.0155 62.7636 95.342 65.0616C98.4682 68.1493 99.8098 71.3436 99.8098 75.699C99.8098 78.42 99.3064 80.4428 98.0174 82.9019C96.1828 86.4018 92.4847 89.3026 88.5512 90.3271C86.6634 90.8188 82.7085 90.8197 80.9207 90.3291V90.3288ZM59.8577 101.351C59.8577 101.226 58.8378 99.4699 57.5912 97.4488C56.3446 95.4278 54.2312 91.7817 52.8948 89.3464C51.5584 86.9111 50.3463 84.9564 50.2012 85.0026C49.6364 85.1823 44.8643 98.356 45.1213 99.0258C45.2693 99.4115 48.5991 100.11 54.7271 101.042C58.3149 101.587 59.8577 101.68 59.8577 101.351ZM114.626 100.911C120.015 100.14 124.725 99.1247 124.889 98.6994C125.157 97.9991 120.547 85.5422 119.785 84.9098C119.518 84.6883 118.918 85.5761 117.06 88.9453C115.75 91.3211 113.654 94.9632 112.403 97.039C111.152 99.1148 110.129 100.991 110.129 101.208C110.129 101.508 110.336 101.568 110.988 101.456C111.461 101.375 113.098 101.129 114.626 100.911ZM38.0043 96.4175C39.0189 93.2098 42.281 84.518 43.89 80.7349C44.9596 78.2199 45.8348 76.0117 45.8348 75.8277C45.8348 75.6437 45.1169 73.8391 44.2394 71.8176C42.4746 67.7514 40.0086 61.2984 38.7023 57.3279C38.0549 55.3599 37.7429 54.7482 37.3868 54.7482C37.13 54.7482 35.205 55.3239 33.1091 56.0276C19.5167 60.5909 9.93245 67.2896 7.95133 73.611C7.3239 75.613 7.46569 76.975 8.53546 79.2221C10.8383 84.0593 17.6664 89.4413 26.5202 93.3978C29.5575 94.755 36.8175 97.3449 37.3627 97.2656C37.5779 97.2343 37.8667 96.8526 38.0043 96.4175ZM136.451 95.7486C145.537 92.6159 152.889 88.4689 157.517 83.8662C160.352 81.0465 161.244 79.7014 161.853 77.3269C162.178 76.0569 162.207 75.4428 161.989 74.4694C160.502 67.8326 150.284 60.6335 135.337 55.6909C133.703 55.1508 132.254 54.7784 132.117 54.8634C131.979 54.9485 131.424 56.3563 130.884 57.992C129.575 61.9542 127.398 67.5523 125.429 72.0224L123.821 75.6705L125.567 79.6082C127.757 84.5463 129.674 89.3435 131.031 93.279C131.609 94.9558 132.15 96.4379 132.234 96.5724C132.496 96.997 133.268 96.8462 136.451 95.7486ZM52.5805 62.8841C53.7094 60.8105 55.7491 57.2555 57.1131 54.9842C58.4771 52.7129 59.5931 50.7186 59.5931 50.5524C59.5931 50.1504 59.5549 50.1532 54.8306 50.8996C50.3842 51.6021 45.6808 52.5319 45.2608 52.7915C44.9057 53.011 45.0749 53.6018 47.0563 59.0635C49.0441 64.5427 49.9419 66.6544 50.2835 66.6544C50.4179 66.6544 51.4516 64.9578 52.5805 62.8841ZM121.194 63.2571C123.139 58.3366 124.762 53.489 124.603 53.075C124.459 52.7007 120.168 51.7651 114.097 50.7846C110.239 50.1613 110.129 50.1549 110.129 50.5524C110.129 50.7186 111.243 52.7129 112.604 54.9842C113.966 57.2555 116.019 60.8097 117.168 62.8824C118.317 64.9551 119.391 66.6518 119.554 66.6527C119.718 66.6537 120.456 65.1256 121.194 63.2571ZM126.718 45.5426C127.102 45.298 128.222 39.873 128.75 35.6982C130.232 23.9725 128.843 14.5015 125.022 10.2712C123.325 8.39333 122.358 8.047 118.86 8.06417C116.168 8.07738 115.527 8.17615 113.304 8.91966C108.651 10.4754 102.198 14.1784 97.2975 18.1041C94.4402 20.3931 90.2848 24.0902 90.2848 24.3434C90.2848 24.4684 91.8348 26.375 93.7293 28.5803C95.6238 30.7855 98.7472 34.6882 100.67 37.2529C102.593 39.8175 104.275 41.9932 104.408 42.0876C104.541 42.1821 105.436 42.338 106.397 42.434C111.81 42.9751 120.805 44.4598 126.268 45.7139C126.341 45.7306 126.543 45.6535 126.718 45.5426ZM45.8836 45.0798C49.2733 44.3653 56.9463 43.1612 61.0483 42.6999C63.2311 42.4544 65.1518 42.1776 65.3164 42.0848C65.481 41.9919 66.9542 40.13 68.5901 37.9471C71.6252 33.8974 75.5458 29.0977 78.0438 26.3739C78.81 25.5384 79.4369 24.6833 79.4369 24.4737C79.4369 24.264 78.5141 23.2565 77.3864 22.2348C67.0483 12.8695 55.1282 7.01569 48.701 8.14782C44.6509 8.86123 42.4041 11.8022 40.9944 18.2357C40.2478 21.6427 40.1974 30.5572 40.8978 35.3013C41.3712 38.5076 42.6164 44.9229 42.8364 45.2893C43.0129 45.5832 43.729 45.534 45.8836 45.0798ZM94.2535 41.0988C94.2535 40.5161 85.5011 29.8774 85.0217 29.8774C84.4102 29.8774 75.4681 40.4604 75.4681 41.1841C75.4681 41.3158 79.5832 41.4203 84.8608 41.4225C92.1524 41.4255 94.2535 41.3531 94.2535 41.0988Z" fill="black"/>
</svg>
