<svg width="43" height="54" viewBox="0 0 43 54" fill="none" xmlns="http://www.w3.org/2000/svg">
<path d="M31.7158 12.9318C31.5565 5.21927 24.7742 -2.62345 16.6345 0.850212C8.09244 4.49561 7.13518 15.5522 9.93923 23.2506C10.3795 24.4595 11.2661 25.6242 11.5305 26.8794C11.9374 28.8114 11.3823 32.098 14.7824 31.5514C16.7655 31.2328 18.0307 28.9968 16.9367 27.2244C15.985 25.6824 14.0234 25.8858 13.1484 24.3039C9.39843 17.5242 10.1287 4.70258 19.2804 2.75006C23.1385 1.92694 26.3474 4.5333 27.9262 7.90475C29.0501 10.3055 28.6342 12.4764 31.7158 12.9318ZM24.0429 38.3318C30.318 40.7491 41.3614 40.0003 42.0107 31.1881C42.6973 21.8711 33.9809 15.6135 25.6304 14.2335C24.3389 14.0201 22.9149 14.2123 21.6616 13.9063C19.5693 13.3953 16.3911 10.7355 15.3201 14.5204C14.7785 16.435 16.267 18.2449 18.222 18.1872C20.0466 18.1333 20.8475 16.3362 22.7199 16.3831C29.5772 16.5549 41.4493 22.7519 39.5133 31.1881C38.6481 34.9584 34.9776 37.5225 31.1866 37.3809C28.2926 37.2727 26.1064 35.5307 24.0429 38.3318ZM6.05119 18.7527C-0.231763 23.5398 -3.38332 34.8777 5.78661 38.738C12.1824 41.4306 20.3532 38.3718 25.0774 33.789C26.6834 32.2314 27.579 30.2621 28.9731 28.5775C30.336 26.9307 33.5964 24.9296 30.6286 22.5928C29.1641 21.4395 26.8673 22.0756 26.1622 23.7837C25.5087 25.367 26.849 26.7452 25.9659 28.2777C22.217 34.7817 10.0303 41.3783 4.02171 34.0982C1.839 31.4537 1.94908 27.938 3.68811 25.1027C5.0514 22.8799 7.55323 21.5573 6.05119 18.7527ZM22.1908 42.3006V46.2693C16.3914 43.4785 14.956 53.542 19.8095 53.6613C20.7858 53.6851 21.5873 53.2689 22.4554 52.8839L24.572 53.6777V42.3006H22.1908ZM0.230355 42.5652V53.6777H2.87618V49.4443L6.37133 53.2536L9.22618 53.6777L6.31577 48.9152C8.49038 47.76 9.35556 44.6152 6.83355 43.2113C4.93927 42.1569 2.31311 42.5652 0.230355 42.5652ZM2.87618 47.8569V44.4173C6.41022 44.5718 6.44806 47.8246 2.87618 47.8569ZM16.3699 52.6194C14.7906 50.5942 12.3493 53.1271 11.3429 50.2381C12.4957 50.2381 15.0063 50.7122 15.9458 49.9661C16.9682 49.1541 15.9518 47.2637 15.255 46.6078C14.0212 45.446 11.6416 45.4285 10.3123 46.4421C8.32845 47.955 8.43985 51.8065 10.5605 53.1461C12.3351 54.2669 14.7401 53.6433 16.3699 52.6194ZM25.6304 45.7402C25.6304 49.5589 25.2737 55.7232 30.922 52.8839L33.0387 53.6777V45.7402H30.6574C30.6574 46.8578 31.2874 52.6667 28.8657 51.7179C27.3414 51.1205 28.0116 47.0448 28.0116 45.7402H25.6304ZM33.5679 45.7402L35.6284 49.7089L33.5679 53.6777C35.6729 53.6757 36.6505 53.1437 37.272 51.0318H37.8012C38.5116 53.2758 39.5601 53.6774 41.7699 53.6777L39.7065 49.4443L41.7699 45.7402C39.7604 45.7422 38.7921 46.1426 38.0658 48.1214H37.5366C36.6436 46.0542 35.7168 45.7404 33.5679 45.7402ZM13.9887 48.9152H11.3429C11.7212 47.1427 14.0199 46.8946 13.9887 48.9152ZM20.6136 47.5161C22.6906 46.9353 22.775 51.3253 21.1182 51.8251C18.8904 52.4971 18.6747 48.0585 20.6136 47.5161Z" fill="#333333"/>
<path d="M0.345805 48.1032L0.371755 42.6078H2.63012C5.02995 42.6078 5.54826 42.6764 6.49443 43.119C7.92828 43.7897 8.56064 44.9977 8.20488 46.3864C7.96142 47.3367 7.34214 48.1917 6.4706 48.7807C6.24841 48.9308 6.25149 48.9372 7.65626 51.226C8.43089 52.4882 9.04704 53.5385 9.02547 53.56C9.00391 53.5816 8.40302 53.5107 7.69016 53.4026C6.4008 53.2069 6.39223 53.2038 6.04276 52.8111C5.84954 52.594 5.05912 51.7287 4.28625 50.8881L2.88105 49.3599L2.85396 51.4792L2.82687 53.5985H1.57336H0.319855L0.345805 48.1032ZM4.58785 47.5302C5.25349 47.2045 5.5409 46.7836 5.5409 46.1344C5.5409 45.7441 5.48452 45.6073 5.18876 45.28C4.78256 44.8303 4.10255 44.5072 3.35372 44.4078L2.83086 44.3385V46.1218V47.9052L3.43876 47.8501C3.7936 47.8179 4.27196 47.6847 4.58785 47.5302V47.5302Z" fill="black"/>
<path d="M11.7021 53.5639C11.4196 53.4916 10.9854 53.3135 10.7372 53.1681C8.4241 51.8125 8.36261 47.6753 10.6353 46.3109C12.0798 45.4438 14.3241 45.6762 15.3376 46.798C16.2166 47.7709 16.5416 49.1578 16.0324 49.7629C15.6307 50.2403 15.1203 50.3254 13.0621 50.2577L11.2647 50.1985L11.4193 50.5686C11.5849 50.965 11.9893 51.4386 12.316 51.6185C12.4264 51.6794 13.1297 51.7568 13.879 51.7907C15.124 51.8469 15.2817 51.8759 15.7108 52.1273C15.969 52.2787 16.1803 52.4674 16.1803 52.5468C16.1803 52.7272 15.6204 53.0165 14.6231 53.3512C13.6932 53.6634 12.4462 53.7542 11.7021 53.5639V53.5639ZM14.0136 48.605C13.8701 47.8097 13.5398 47.4814 12.8799 47.4781C12.1724 47.4745 11.5511 47.9823 11.317 48.7556L11.2486 48.9814H12.6651H14.0816L14.0136 48.605Z" fill="black"/>
<path d="M19.0904 53.5107C18.5688 53.3397 18.1981 53.089 17.8033 52.6406C16.464 51.1191 16.742 47.9986 18.3423 46.59C19.1598 45.8703 20.3665 45.6719 21.5 46.0706C21.8036 46.1774 22.0859 46.2663 22.1273 46.2681C22.1687 46.2699 22.2026 45.3906 22.2026 44.3141V42.3569H23.3569H24.5112V47.9752V53.5935L23.7333 53.3038C23.3054 53.1445 22.8487 52.9734 22.7183 52.9235C22.5363 52.854 22.28 52.9139 21.6142 53.1817C20.7119 53.5446 19.6258 53.6862 19.0904 53.5107V53.5107ZM21.4612 51.7009C21.9218 51.42 22.2291 50.7047 22.2815 49.7915C22.3345 48.8679 22.1902 48.2856 21.7976 47.8385C21.2647 47.2316 20.455 47.291 19.8649 47.9803C19.4342 48.4835 19.2912 48.9632 19.294 49.8964C19.2965 50.7471 19.5111 51.3328 19.9452 51.6742C20.3022 51.9551 21.0236 51.9677 21.4612 51.7009V51.7009Z" fill="black"/>
<path d="M27.974 53.5047C26.3518 53.1098 25.7175 51.4371 25.7162 47.5511L25.7156 45.7695H26.8106H27.9056L27.8896 48.0028C27.8758 49.9313 27.8986 50.3076 28.0563 50.7601C28.4651 51.9323 29.6697 52.2505 30.2352 51.3356C30.5986 50.7475 30.7306 49.7834 30.7324 47.7017L30.7341 45.7695H31.8382H32.9423V49.6795V53.5895L32.2649 53.3318C30.8291 52.7857 30.9227 52.8024 30.5002 53.0155C30.0938 53.2205 28.7048 53.6056 28.4347 53.5883C28.3469 53.5826 28.1396 53.545 27.974 53.5047V53.5047Z" fill="black"/>
<path d="M33.7454 53.5473C33.7454 53.504 34.1822 52.6246 34.7162 51.5932L35.687 49.7178L34.6598 47.7286L33.6326 45.7395L34.3665 45.8064C35.4673 45.9068 36.0237 46.1265 36.5519 46.6695C36.8025 46.927 37.1168 47.3719 37.2504 47.6581C37.4665 48.1207 37.5277 48.1782 37.8025 48.1767C38.0822 48.1751 38.1351 48.1204 38.3605 47.5996C38.8452 46.479 39.6213 45.9642 41.0586 45.8097L41.697 45.7411L41.5691 45.9811C41.4987 46.1132 41.042 46.9315 40.5542 47.7997C40.0664 48.6678 39.6673 49.3996 39.6673 49.4257C39.6673 49.4519 40.1188 50.4079 40.6707 51.5502L41.6741 53.6271L40.89 53.5734C39.4305 53.4734 38.6666 52.9414 38.0935 51.626C37.833 51.0281 37.7904 50.982 37.5239 51.0094C37.2734 51.0352 37.2038 51.1194 36.9898 51.6557C36.6612 52.4793 36.1845 53.0158 35.5314 53.2967C35.0062 53.5227 33.7454 53.6995 33.7454 53.5473V53.5473Z" fill="black"/>
</svg>
