<?xml version="1.0" encoding="UTF-8" standalone="no"?>
<svg
   xmlns:dc="http://purl.org/dc/elements/1.1/"
   xmlns:cc="http://creativecommons.org/ns#"
   xmlns:rdf="http://www.w3.org/1999/02/22-rdf-syntax-ns#"
   xmlns:svg="http://www.w3.org/2000/svg"
   xmlns="http://www.w3.org/2000/svg"
   xmlns:sodipodi="http://sodipodi.sourceforge.net/DTD/sodipodi-0.dtd"
   xmlns:inkscape="http://www.inkscape.org/namespaces/inkscape"
   width="43"
   height="54"
   viewBox="0 0 43 54"
   fill="none"
   version="1.1"
   id="svg4"
   sodipodi:docname="redux.svg"
   inkscape:version="1.0.1 (3bc2e813f5, 2020-09-07)">
  <metadata
     id="metadata10">
    <rdf:RDF>
      <cc:Work
         rdf:about="">
        <dc:format>image/svg+xml</dc:format>
        <dc:type
           rdf:resource="http://purl.org/dc/dcmitype/StillImage" />
      </cc:Work>
    </rdf:RDF>
  </metadata>
  <defs
     id="defs8" />
  <sodipodi:namedview
     pagecolor="#ffffff"
     bordercolor="#666666"
     borderopacity="1"
     objecttolerance="10"
     gridtolerance="10"
     guidetolerance="10"
     inkscape:pageopacity="0"
     inkscape:pageshadow="2"
     inkscape:window-width="1366"
     inkscape:window-height="705"
     id="namedview6"
     showgrid="false"
     inkscape:zoom="9.962963"
     inkscape:cx="21.5"
     inkscape:cy="43.05948"
     inkscape:window-x="-8"
     inkscape:window-y="-8"
     inkscape:window-maximized="1"
     inkscape:current-layer="svg4" />
  <path
     d="M31.7158 12.9318C31.5565 5.21928 24.7742 -2.62344 16.6345 0.850225C8.09245 4.49562 7.13519 15.5522 9.93924 23.2506C10.3795 24.4595 11.2661 25.6242 11.5305 26.8794C11.9374 28.8114 11.3823 32.098 14.7824 31.5514C16.7655 31.2328 18.0307 28.9968 16.9367 27.2244C15.985 25.6824 14.0234 25.8858 13.1484 24.3039C9.39844 17.5242 10.1287 4.70259 19.2804 2.75007C23.1385 1.92695 26.3474 4.53331 27.9262 7.90476C29.0501 10.3055 28.6342 12.4764 31.7158 12.9318V12.9318ZM24.0429 38.3318C30.318 40.7491 41.3614 40.0003 42.0107 31.1881C42.6973 21.8711 33.9809 15.6135 25.6304 14.2335C24.3389 14.0201 22.9149 14.2123 21.6616 13.9063C19.5693 13.3953 16.3911 10.7355 15.3201 14.5204C14.7785 16.435 16.267 18.2449 18.222 18.1872C20.0466 18.1333 20.8475 16.3362 22.7199 16.3831C29.5772 16.5549 41.4493 22.7519 39.5133 31.1881C38.6481 34.9584 34.9776 37.5225 31.1866 37.3809C28.2926 37.2727 26.1064 35.5307 24.0429 38.3318V38.3318ZM6.0512 18.7527C-0.231753 23.5398 -3.38331 34.8777 5.78662 38.738C12.1824 41.4306 20.3532 38.3718 25.0774 33.789C26.6834 32.2314 27.579 30.2621 28.9731 28.5775C30.336 26.9307 33.5964 24.9296 30.6286 22.5928C29.1641 21.4395 26.8673 22.0756 26.1622 23.7837C25.5087 25.367 26.849 26.7452 25.9659 28.2777C22.217 34.7817 10.0303 41.3783 4.02172 34.0982C1.83901 31.4537 1.94909 27.938 3.68812 25.1027C5.05141 22.8799 7.55324 21.5573 6.0512 18.7527V18.7527ZM22.1908 42.3006V46.2693C16.3914 43.4785 14.956 53.542 19.8095 53.6613C20.7858 53.6851 21.5873 53.2689 22.4554 52.8839L24.572 53.6777V42.3006H22.1908V42.3006ZM0.230365 42.5652V53.6777H2.87619V49.4443L6.37134 53.2536L9.22619 53.6777L6.31578 48.9152C8.49039 47.76 9.35557 44.6152 6.83356 43.2113C4.93928 42.1569 2.31312 42.5652 0.230365 42.5652V42.5652ZM2.87619 47.8569V44.4173C6.41023 44.5718 6.44807 47.8246 2.87619 47.8569ZM16.3699 52.6194C14.7906 50.5942 12.3493 53.1271 11.3429 50.2381C12.4957 50.2381 15.0063 50.7122 15.9458 49.9661C16.9682 49.1541 15.9518 47.2637 15.255 46.6078C14.0212 45.446 11.6416 45.4285 10.3123 46.4421C8.32846 47.955 8.43986 51.8065 10.5605 53.1461C12.3351 54.2669 14.7401 53.6433 16.3699 52.6194V52.6194ZM25.6304 45.7402C25.6304 49.5589 25.2737 55.7232 30.922 52.8839L33.0387 53.6777V45.7402H30.6574C30.6574 46.8578 31.2874 52.6667 28.8657 51.7179C27.3414 51.1205 28.0116 47.0448 28.0116 45.7402H25.6304V45.7402ZM33.5679 45.7402L35.6284 49.7089L33.5679 53.6777C35.6729 53.6757 36.6505 53.1437 37.272 51.0318H37.8012C38.5116 53.2758 39.5601 53.6774 41.7699 53.6777L39.7065 49.4443L41.7699 45.7402C39.7604 45.7422 38.7921 46.1426 38.0658 48.1214H37.5366C36.6436 46.0542 35.7168 45.7404 33.5679 45.7402V45.7402ZM13.9887 48.9152H11.3429C11.7212 47.1427 14.0199 46.8946 13.9887 48.9152ZM20.6136 47.5161C22.6906 46.9353 22.775 51.3253 21.1182 51.8251C18.8904 52.4971 18.6747 48.0585 20.6136 47.5161Z"
     fill="#62468E"
     id="path2" />
  <path
     style="fill:#000000;stroke-width:0.100372"
     d="m 0.3457972,48.10316 0.02595,-5.495353 h 2.2583643 c 2.3998334,0 2.9181448,0.06856 3.8643123,0.511175 1.4338465,0.670746 2.0662106,1.878734 1.7104461,3.267418 -0.2434531,0.950291 -0.8627342,1.805245 -1.7342752,2.394269 -0.2221912,0.150166 -0.2191093,0.156523 1.1856566,2.445356 0.7746347,1.26214 1.3907812,2.312445 1.3692145,2.334012 -0.021567,0.02156 -0.6224575,-0.04931 -1.3353129,-0.157493 C 6.4007944,53.206863 6.3922246,53.203787 6.0427509,52.811094 5.8495353,52.593983 5.0591078,51.728653 4.2862454,50.888139 L 2.8810409,49.35993 2.8539518,51.479222 2.8268627,53.598513 H 1.5733549 0.31984719 Z m 4.2420407,-0.572975 c 0.665646,-0.32567 0.9530543,-0.746605 0.9530543,-1.395832 0,-0.390235 -0.056383,-0.527039 -0.3521399,-0.854406 C 4.782555,44.830335 4.1025402,44.507145 3.3537104,44.40781 L 2.830855,44.33845 v 1.783377 1.783377 l 0.6079023,-0.05512 c 0.3548332,-0.03218 0.8331941,-0.165348 1.1490806,-0.319897 z"
     id="path12" />
  <path
     style="fill:#000000;stroke-width:0.100372"
     d="m 11.702062,53.563875 c -0.282453,-0.07223 -0.71664,-0.250342 -0.964858,-0.395808 -2.3131112,-1.355573 -2.3745931,-5.492772 -0.101903,-6.857127 1.444476,-0.867156 3.688832,-0.634695 4.702252,0.48704 0.878995,0.972942 1.20403,2.359811 0.694874,2.964909 -0.401761,0.477465 -0.912108,0.562476 -2.970308,0.494778 l -1.797437,-0.05912 0.154582,0.370058 c 0.165605,0.396448 0.570053,0.870011 0.896721,1.049961 0.110409,0.06082 0.81376,0.138268 1.563003,0.172106 1.244977,0.05623 1.402683,0.08521 1.831785,0.336684 0.258238,0.151338 0.469524,0.340089 0.469524,0.419447 0,0.180435 -0.55986,0.469662 -1.5572,0.804458 -0.929883,0.312151 -2.176855,0.402916 -2.921035,0.212616 z m 2.31158,-4.958856 c -0.143567,-0.795309 -0.473845,-1.123602 -1.133765,-1.126951 -0.707439,-0.0036 -1.328752,0.504259 -1.562929,1.277508 l -0.06839,0.225837 h 1.416517 1.416516 z"
     id="path14" />
  <path
     style="fill:#000000;stroke-width:0.100372"
     d="M 19.090428,53.510696 C 18.568799,53.339657 18.1981,53.08905 17.803335,52.640574 16.464043,51.119059 16.741989,47.998581 18.342271,46.589955 19.1598,45.870338 20.366455,45.67189 21.5,46.070632 c 0.303625,0.106805 0.58592,0.195665 0.627323,0.197467 0.0414,0.0018 0.07528,-0.877486 0.07528,-1.953973 v -1.957249 h 1.154275 1.154275 v 5.618294 5.618292 l -0.777881,-0.289677 c -0.427834,-0.159322 -0.884559,-0.330428 -1.014943,-0.380237 -0.182023,-0.06953 -0.438368,-0.0096 -1.10409,0.258175 -0.902301,0.362926 -1.988476,0.504505 -2.523811,0.328972 z m 2.370777,-1.809814 c 0.460566,-0.280844 0.767882,-0.996184 0.820268,-1.90934 0.05299,-0.923686 -0.09124,-1.50589 -0.483831,-1.953026 -0.532906,-0.606946 -1.342678,-0.547547 -1.932707,0.141769 -0.430756,0.503242 -0.573685,0.982947 -0.570909,1.916118 0.0025,0.85071 0.217031,1.436374 0.651138,1.777843 0.357002,0.280818 1.078415,0.293493 1.516041,0.02664 z"
     id="path16" />
  <path
     style="fill:#000000;stroke-width:0.100372"
     d="M 27.973978,53.504659 C 26.351835,53.10975 25.717496,51.437054 25.716205,47.551115 l -5.92e-4,-1.781598 h 1.094971 1.094972 l -0.01598,2.233271 c -0.01379,1.928478 0.009,2.304785 0.166758,2.75726 0.408813,1.172276 1.613385,1.490435 2.178851,0.575493 0.363467,-0.588102 0.49539,-1.552155 0.497268,-3.633868 l 0.0017,-1.932156 h 1.104089 1.104089 v 3.91 3.91 L 32.26487,53.331798 c -1.435726,-0.546139 -1.342203,-0.529374 -1.764628,-0.31633 -0.406433,0.204979 -1.795483,0.590157 -2.065554,0.572771 -0.08778,-0.0057 -0.295097,-0.04326 -0.46071,-0.08358 z"
     id="path18" />
  <path
     style="fill:#000000;stroke-width:0.100372"
     d="m 33.745353,53.547289 c 0,-0.04329 0.436875,-0.922643 0.970834,-1.95412 l 0.970834,-1.875411 -1.027202,-1.989109 -1.027203,-1.989108 0.733878,0.06689 c 1.100816,0.100336 1.657161,0.320046 2.185423,0.863058 0.250535,0.257531 0.564865,0.702398 0.698512,0.988594 0.216016,0.462585 0.277305,0.520165 0.552044,0.518643 0.279751,-0.0016 0.332651,-0.05627 0.557981,-0.577138 0.484764,-1.120577 1.260802,-1.635395 2.698088,-1.789892 l 0.638469,-0.06863 -0.12793,0.240062 c -0.07036,0.132034 -0.52705,0.950382 -1.014863,1.818552 -0.487812,0.86817 -0.886932,1.59989 -0.886932,1.626045 0,0.02616 0.45154,0.982176 1.003421,2.124493 l 1.003421,2.076939 -0.784148,-0.05375 c -1.459506,-0.100036 -2.223436,-0.632021 -2.796482,-1.947411 -0.26049,-0.597937 -0.303067,-0.644028 -0.569601,-0.616604 -0.250523,0.02578 -0.320132,0.110012 -0.534105,0.646344 -0.328576,0.82359 -0.805346,1.360037 -1.458438,1.64099 -0.525203,0.225936 -1.786001,0.402815 -1.786001,0.25056 z"
     id="path20" />
</svg>
