<svg width="46" height="46" viewBox="0 0 46 46" fill="none" xmlns="http://www.w3.org/2000/svg">
<path d="M14.285 10.565L32.282 10.569C33.997 10.565 35.493 11.721 35.927 13.38C36.363 15.038 35.629 16.778 34.133 17.612L29.029 20.495L34.638 26.102C36.105 27.572 36.113 29.956 34.635 31.431L31.386 34.68C29.911 36.153 27.527 36.15 26.06 34.68L20.448 29.072L17.57 34.178C16.732 35.671 14.989 36.408 13.334 35.97C11.676 35.537 10.52 34.042 10.527 32.329L10.521 14.332C10.521 12.251 12.204 10.565 14.285 10.565Z" fill="#F5F5F5"/>
<path d="M0.602001 11.623C0.602001 5.806 5.317 1.091 11.133 1.091H35.469C41.285 1.091 46 5.806 46 11.623V34.979C46 40.796 41.285 45.511 35.469 45.511H11.133C5.317 45.511 0.602001 40.796 0.602001 34.979V11.623ZM5.373 35.01C5.373 38.174 7.938 40.739 11.101 40.739H35.44C38.602 40.739 41.168 38.175 41.168 35.01V11.654C41.168 8.49 38.604 5.925 35.44 5.925H11.101C7.939 5.925 5.373 8.488 5.373 11.654V35.01Z" fill="#F5F5F5"/>
</svg>
