<svg width="128" height="128" viewBox="0 0 128 128" fill="none" xmlns="http://www.w3.org/2000/svg">
<g clip-path="url(#clip0)">
<path d="M32.191 97.953C31.8224 97.953 31.4552 98.0586 31.1363 98.2694C30.8174 98.4802 30.525 98.8437 30.525 99.3104C30.525 99.3718 30.4888 99.5096 30.6089 99.7499L30.5777 99.6737L36.9879 120.471C37.1026 120.861 37.3781 121.159 37.6871 121.33C37.9961 121.501 38.3362 121.566 38.6656 121.566C39.3661 121.566 40.1352 121.232 40.3707 120.478V120.476L46.775 99.6015V99.5253C46.775 99.6306 46.8063 99.5698 46.8063 99.3417C46.8063 98.8671 46.5031 98.5181 46.1793 98.2987C45.8555 98.0794 45.4743 97.953 45.0777 97.953C44.5887 97.953 44.0261 98.2505 43.8375 98.8163L43.8336 98.8222L38.6637 116.076L33.4742 98.8532C33.3973 98.5455 33.19 98.2876 32.9488 98.1442C32.7077 98.0008 32.4446 97.9528 32.191 97.9528V97.953ZM83.246 99.0253C82.2256 99.0253 81.3651 99.807 81.3651 100.785C81.3651 101.763 82.2122 102.572 83.246 102.572C84.2602 102.572 85.0663 101.748 85.0663 100.785C85.0663 99.8222 84.2463 99.0253 83.246 99.0253ZM68.217 105.683C64.7286 105.683 61.8557 108.475 61.8557 111.83V115.267C61.8557 117.147 62.6045 118.757 63.8752 119.869C65.146 120.981 66.9198 121.596 68.9533 121.596C70.4553 121.596 71.6795 121.259 72.5549 120.803C72.9926 120.574 73.3442 120.318 73.6037 120.039C73.8632 119.76 74.0549 119.454 74.0549 119.072C74.0549 118.721 73.9198 118.418 73.7013 118.145C73.4829 117.871 73.1389 117.621 72.6954 117.621C72.3752 117.621 72.1293 117.756 71.9162 117.887C71.703 118.018 71.5028 118.162 71.2618 118.301C70.7799 118.578 70.1414 118.848 69.0138 118.848C67.7584 118.848 66.7115 118.49 65.9904 117.889C65.2693 117.288 64.8499 116.453 64.8499 115.359V114.723H71.2853C71.9717 114.723 72.7348 114.724 73.3948 114.303C74.0547 113.881 74.4553 113.044 74.4553 111.77C74.4553 108.24 71.5105 105.684 68.2169 105.684L68.217 105.683ZM92.403 105.683C90.5488 105.683 89.1852 106.283 88.3092 107.185C87.4332 108.087 87.0553 109.261 87.0553 110.357C87.0553 111.755 87.6198 112.756 88.4283 113.398C89.2368 114.041 90.2427 114.364 91.1998 114.652C92.1569 114.941 93.073 115.197 93.6881 115.576C94.3032 115.955 94.6334 116.365 94.6334 117.23C94.6334 117.695 94.4938 118.065 94.1158 118.367C93.7378 118.669 93.0668 118.908 91.9732 118.908C90.6795 118.908 89.9565 118.589 89.4302 118.264C89.1671 118.101 88.9551 117.932 88.7369 117.781C88.5186 117.63 88.2712 117.467 87.9244 117.467C87.507 117.467 87.1992 117.724 87.0123 117.99C86.8253 118.256 86.7173 118.559 86.7173 118.887C86.7173 119.292 86.9145 119.648 87.1939 119.957C87.4733 120.266 87.8514 120.541 88.315 120.781C89.2423 121.262 90.5191 121.596 92.0357 121.596C93.6822 121.596 95.0363 121.194 95.9947 120.414C96.953 119.634 97.4752 118.475 97.4752 117.139C97.4752 115.629 96.9264 114.544 96.1178 113.826C95.3091 113.109 94.2882 112.739 93.317 112.441C92.3459 112.144 91.4113 111.912 90.7858 111.586C90.1603 111.26 89.8659 110.959 89.8659 110.266C89.8659 109.891 90.0159 109.419 90.3971 109.047C90.7784 108.675 91.4003 108.373 92.4342 108.373C93.2603 108.373 93.8743 108.563 94.3658 108.764C94.6116 108.864 94.8252 108.969 95.0279 109.057C95.2307 109.144 95.4176 109.23 95.6861 109.23C96.1712 109.23 96.5036 108.91 96.7017 108.613C96.8999 108.316 97.0142 108.023 97.0142 107.687C97.0142 107.267 96.7528 106.969 96.4635 106.746C96.1742 106.523 95.8115 106.345 95.3912 106.191C94.5506 105.883 93.4786 105.684 92.4029 105.684L92.403 105.683ZM48.546 105.869C47.7349 105.869 47.0343 106.378 47.0343 107.135V115.328C47.0343 118.652 49.8601 121.596 53.3644 121.596C56.8096 121.596 59.6945 118.686 59.6945 115.328V107.105C59.6945 106.727 59.486 106.398 59.2121 106.189C58.9381 105.981 58.5901 105.869 58.2121 105.869C57.8341 105.869 57.4841 105.98 57.2043 106.184C56.9245 106.388 56.7004 106.714 56.7004 107.105V115.328C56.7004 117.07 55.1821 118.756 53.3645 118.756C51.5167 118.756 50.0286 117.04 50.0286 115.328V107.135C50.0286 106.742 49.8142 106.44 49.5481 106.224C49.282 106.009 48.9344 105.869 48.5461 105.869H48.546ZM83.247 105.869C82.8678 105.869 82.5165 105.967 82.2372 106.178C81.9579 106.389 81.7665 106.736 81.7665 107.105V122.201C81.7665 123.334 81.6871 124.284 81.4384 124.86C81.1896 125.435 80.8962 125.69 80.0575 125.69C79.3165 125.69 78.6981 126.337 78.6981 127.112C78.6981 127.433 78.8019 127.787 79.0653 128.063C79.3286 128.339 79.7374 128.5 80.2098 128.5C81.8041 128.5 83.0239 127.793 83.7508 126.645C84.4777 125.496 84.7606 123.96 84.7606 122.201V107.105C84.7606 106.712 84.5359 106.37 84.2508 106.168C83.9658 105.966 83.6156 105.869 83.2469 105.869H83.247ZM68.186 108.342C70.1773 108.342 71.5219 110.009 71.5219 111.707C71.5219 111.892 71.502 112.013 71.4828 112.068C71.4637 112.123 71.4655 112.116 71.4379 112.135C71.3827 112.171 71.0754 112.25 70.4867 112.25H64.8501V111.584C64.8501 109.807 66.3346 108.342 68.186 108.342ZM77.6977 117.713C76.61 117.713 75.7856 118.613 75.7856 119.654C75.7856 120.655 76.5977 121.566 77.6977 121.566C78.7397 121.566 79.5786 120.682 79.5786 119.654C79.5786 118.587 78.7258 117.713 77.6977 117.713Z" fill="black"/>
<path d="M31.4038 0.393555L51.1328 0.401017L64.0294 21.8078L76.8804 0.402732L96.5923 0.3975L64.128 56.7105L31.4038 0.393555Z" fill="black"/>
<path d="M9.88696 0.544215L31.3864 0.397461L64.1088 56.7129L96.5749 0.400892L118.112 0.42345L64.1054 93.1075L9.88696 0.544215Z" fill="#474747"/>
</g>
<defs>
<clipPath id="clip0">
<rect width="128" height="128" fill="white"/>
</clipPath>
</defs>
</svg>
