<svg width="2469" height="2469" viewBox="0 0 1169 1416" fill="none" xmlns="http://www.w3.org/2000/svg">
<path d="M83.0814 585.663C83.0814 784.546 198.42 956.402 365.669 1037.86L126.492 381.187C97.8199 445.524 83.0271 515.202 83.0814 585.663V585.663ZM922.973 560.309C922.973 498.215 900.714 455.213 881.623 421.742C856.207 380.356 832.393 345.308 832.393 303.921C832.393 257.735 867.341 214.742 916.581 214.742C918.804 214.742 920.912 215.02 923.088 215.144C833.872 133.25 715.023 83.25 584.486 83.25C409.318 83.25 255.206 173.308 165.552 309.714C177.315 310.068 188.411 310.307 197.818 310.307C250.264 310.307 331.446 303.931 331.446 303.931C358.475 302.334 361.662 342.114 334.671 345.317C334.671 345.317 307.499 348.52 277.274 350.107L459.865 894.327L569.603 564.564L491.473 350.097C464.473 348.51 438.894 345.308 438.894 345.308C411.875 343.72 415.042 302.324 442.062 303.921C442.062 303.921 524.866 310.298 574.134 310.298C626.57 310.298 707.762 303.921 707.762 303.921C734.81 302.324 737.987 342.105 710.977 345.308C710.977 345.308 683.758 348.51 653.59 350.097L834.788 890.197L884.791 722.729C906.477 653.235 922.973 603.321 922.973 560.309V560.309Z" fill="#00749A"/>
<path d="M593.282 629.614L442.844 1067.65C488.837 1081.23 536.537 1088.13 584.486 1088.13C642.875 1088.13 698.87 1078 750.991 1059.65C749.593 1057.45 748.398 1055.14 747.423 1052.72L593.282 629.614ZM1024.45 344.611C1026.6 360.615 1027.83 377.805 1027.83 396.275C1027.83 447.26 1018.32 504.574 989.7 576.238L836.543 1019.96C985.607 932.857 1085.87 771.03 1085.87 585.665C1086 501.41 1064.88 418.488 1024.45 344.611V344.611Z" fill="#00749A"/>
<path d="M584.486 0C262.209 0 0 262.727 0 585.664C0 908.64 262.199 1171.37 584.486 1171.37C906.753 1171.37 1169 908.65 1169 585.664C1168.99 262.727 906.753 0 584.486 0ZM584.486 1144.51C276.987 1144.51 26.8 893.812 26.8 585.664C26.8 277.545 276.978 26.8645 584.486 26.8645C891.975 26.8645 1142.14 277.545 1142.14 585.664C1142.14 893.812 891.965 1144.51 584.486 1144.51Z" fill="#00749A"/>
<path d="M526.29 1248.56H466.055V1257.65C484.896 1257.65 487.925 1263.39 487.925 1297.35V1358.59C487.925 1392.56 484.901 1398.78 466.055 1398.78C451.591 1395.91 441.826 1384.91 428.366 1363.86L412.889 1339.94C433.748 1334.67 444.853 1316.02 444.853 1294.96C444.853 1268.66 429.041 1248.56 399.426 1248.56H340.202V1257.65C359.043 1257.65 362.072 1263.39 362.072 1297.35V1358.59C362.072 1392.56 359.046 1398.78 340.202 1398.78V1407.87H407.165V1398.78C388.326 1398.78 385.294 1392.56 385.294 1358.59V1341.38H391.016L428.369 1407.87H526.293C574.412 1407.87 595.279 1371.52 595.279 1327.98C595.274 1284.44 574.412 1248.56 526.29 1248.56V1248.56ZM385.297 1326.54V1262.92H399.092C414.232 1262.92 420.965 1277.75 420.965 1294.97C420.965 1311.71 414.232 1326.54 399.092 1326.54L385.297 1326.54ZM527.302 1393.04H524.944C512.833 1393.04 511.15 1388.74 511.15 1366.73V1262.92H527.302C562.298 1262.92 568.685 1299.27 568.685 1327.5C568.688 1356.68 562.295 1393.04 527.302 1393.04V1393.04ZM152.776 1344.24L175.992 1246.64C182.725 1218.42 179.699 1210.29 158.16 1210.29V1200.72H221.422V1210.29C200.226 1210.29 195.176 1217.46 186.766 1252.39L148.4 1416H144.028L109.701 1266.26L74.7075 1416H70.3294L32.9785 1252.39C24.9025 1217.47 19.5185 1210.3 0 1210.3V1200.73H74.7046V1210.3C54.8461 1210.3 49.4621 1216.99 56.5322 1246.65L79.077 1344.25L113.062 1200.73H119.46L152.776 1344.24V1344.24ZM267.183 1414.08C230.169 1414.08 199.883 1375.34 199.883 1327.97C199.883 1281.09 230.169 1242.34 267.183 1242.34C304.197 1242.34 334.483 1281.09 334.483 1327.97C334.483 1375.34 304.2 1414.08 267.183 1414.08ZM267.183 1257.18C236.228 1257.18 225.454 1296.87 225.454 1327.97C225.454 1359.55 236.228 1398.78 267.183 1398.78C298.481 1398.78 309.249 1359.55 309.249 1327.97C309.249 1296.87 298.481 1257.18 267.183 1257.18Z" fill="#00749A"/>
<path d="M678.386 1398.3V1407.87H601.326V1398.3C623.874 1398.3 627.912 1390.16 627.912 1342.32V1265.78C627.912 1217.94 623.874 1210.29 601.326 1210.29V1200.72H670.981C705.637 1200.72 724.827 1226.07 724.827 1260.04C724.827 1293.05 705.64 1318.88 670.981 1318.88H651.797V1342.32C651.8 1390.17 655.835 1398.3 678.386 1398.3V1398.3ZM670.981 1217.94H651.797V1301.18H670.981C689.825 1301.18 698.573 1282.53 698.573 1260.04C698.576 1237.08 689.828 1217.94 670.981 1217.94ZM956 1362.9L954.314 1371.51C951.29 1387.3 947.581 1393.04 923.69 1393.04H918.978C901.482 1393.04 898.453 1387.3 898.453 1353.34V1331.33C924.702 1331.33 926.722 1334.68 926.722 1359.56H933.118V1288.27H926.722C926.722 1313.14 924.702 1316.49 898.453 1316.49V1262.92H916.957C940.854 1262.92 944.552 1268.66 947.581 1284.44L949.27 1293.53H954.648L952.296 1248.57H853.361V1257.65C872.202 1257.65 875.234 1263.39 875.234 1297.36V1358.59C875.234 1389.66 872.664 1397.49 857.807 1398.61C843.686 1395.54 833.992 1384.6 820.728 1363.85L805.247 1339.94C826.112 1334.67 837.217 1316.02 837.217 1294.96C837.217 1268.66 821.402 1248.56 791.79 1248.56H732.566V1257.65C751.407 1257.65 754.439 1263.39 754.439 1297.35V1358.59C754.439 1392.56 751.413 1398.78 732.566 1398.78V1407.87H799.532V1398.78C780.693 1398.78 777.659 1392.56 777.659 1358.59V1341.38H783.383L820.733 1407.87H959.035L961.055 1362.91L956 1362.9V1362.9ZM777.656 1326.53V1262.92H791.45C806.593 1262.92 813.326 1277.75 813.326 1294.97C813.326 1311.71 806.593 1326.54 791.45 1326.54L777.656 1326.53ZM1024.31 1414.08C1010.85 1414.08 999.069 1404.04 994.022 1397.81C992.336 1400.21 989.313 1407.39 988.641 1414.08H982.245V1348.07H988.975C991.67 1379.64 1007.15 1398.3 1027 1398.3C1037.77 1398.3 1046.52 1389.68 1046.52 1375.34C1046.52 1362.9 1038.78 1353.33 1024.98 1344.24L1005.8 1331.33C992.336 1322.23 982.245 1306.44 982.245 1285.4C982.245 1262.44 997.389 1242.83 1018.25 1242.83C1029.36 1242.83 1038.78 1248.57 1044.5 1255.27C1046.18 1253.35 1047.87 1248.09 1048.88 1242.34H1055.27V1298.8H1048.2C1045.84 1276.31 1037.1 1257.66 1019.26 1257.66C1009.84 1257.66 1001.09 1265.31 1001.09 1277.27C1001.09 1289.71 1008.16 1296.41 1024.31 1306.93L1042.82 1319.84C1058.97 1330.84 1065.36 1348.55 1065.36 1362.9C1065.36 1393.04 1046.85 1414.08 1024.31 1414.08V1414.08ZM1127.95 1414.08C1114.49 1414.08 1102.71 1404.04 1097.66 1397.81C1095.98 1400.21 1092.95 1407.39 1092.29 1414.08H1085.89V1348.07H1092.62C1095.31 1379.64 1110.79 1398.3 1130.65 1398.3C1141.41 1398.3 1150.16 1389.68 1150.16 1375.34C1150.16 1362.9 1142.43 1353.33 1128.63 1344.24L1109.44 1331.33C1095.98 1322.23 1085.89 1306.44 1085.89 1285.4C1085.89 1262.44 1101.03 1242.83 1121.9 1242.83C1133 1242.83 1142.42 1248.57 1148.14 1255.27C1149.82 1253.35 1151.51 1248.09 1152.51 1242.34H1158.91V1298.8H1151.84C1149.49 1276.31 1140.74 1257.66 1122.91 1257.66C1113.49 1257.66 1104.73 1265.31 1104.73 1277.27C1104.73 1289.71 1111.8 1296.41 1127.95 1306.93L1146.46 1319.84C1162.61 1330.84 1169 1348.55 1169 1362.9C1169 1393.04 1150.49 1414.08 1127.95 1414.08V1414.08Z" fill="#464342"/>
</svg>
